<svg stroke-width="0" fill="none" height="24" stroke="currentColor" stroke-linecap="round" viewBox="0 0 24 24" width="24" xmlns="http://www.w3.org/2000/svg" xmlns:xlink="http://www.w3.org/1999/xlink"><path fill="#fff" d="M1,15.6215519 L1,8.37408216 C1.01798289,8.30691395 1.02967583,8.23821793 1.03492756,8.16888271 C1.06112324,7.31752332 1.10041675,6.47052987 1.30561619,5.6410002 C1.77713832,3.76800953 2.86425878,2.40583449 4.64993054,1.63306212 C5.61917047,1.21393134 6.64953364,1.09168486 7.69299464,1.0480254 C7.92002381,1.03929351 8.15141893,1.01746378 8.3784481,1 L15.6259178,1 C15.6930861,1.01798289 15.7617821,1.02967583 15.8311173,1.03492756 C16.6824767,1.06112324 17.5294701,1.10041675 18.3589998,1.30561619 C20.2319905,1.77713832 21.5941655,2.86425878 22.3669379,4.64993054 C22.7860687,5.61917047 22.9083151,6.64953364 22.9519746,7.69299464 C22.9607065,7.92002381 22.9825362,8.15141893 23,8.3784481 L23,15.6259178 C22.9820171,15.6930861 22.9703242,15.7617821 22.9650724,15.8311173 C22.9388768,16.6824767 22.8995833,17.5294701 22.6943838,18.3589998 C22.2228617,20.2319905 21.1357412,21.5941655 19.3500695,22.3669379 C18.3808295,22.7860687 17.3504664,22.9083151 16.3070054,22.9519746 C16.0799762,22.9607065 15.8485811,22.9825362 15.6215519,23 L8.37408216,23 C8.30691395,22.9820171 8.23821793,22.9703242 8.16888271,22.9650724 C7.31752332,22.9388768 6.47052987,22.8995833 5.6410002,22.6943838 C3.76800953,22.2228617 2.40583449,21.1357412 1.63306212,19.3500695 C1.21393134,18.3808295 1.09168486,17.3504664 1.0480254,16.3070054 C1.03929351,16.0799762 1.01746378,15.8485811 1,15.6215519 Z M2.96467553,11.997817 L2.9996031,11.997817 C2.9996031,12.9146656 2.98213931,13.8315142 3.00396904,14.7483628 C3.02579877,15.61282 3.05636039,16.4772772 3.1436793,17.3373685 C3.22663227,18.1668982 3.52351657,18.9309387 4.08672356,19.5727327 C4.86386188,20.4546537 5.88112721,20.830125 7.00754118,20.8956142 C8.30422703,20.9742012 9.60964477,20.996031 10.9106966,21.0091288 C12.1899186,21.0265926 13.4735066,21.0178607 14.7527287,20.991665 C15.6171859,20.9742012 16.4816432,20.9392737 17.3417345,20.8519548 C18.1712641,20.7690018 18.9353046,20.4721175 19.5770986,19.9089105 C20.4590196,19.1317722 20.834491,18.1145068 20.8999802,16.9880929 C20.9785672,15.691407 21.0003969,14.3859893 21.0134947,13.0849375 C21.0309585,11.8057154 21.0222266,10.5264934 20.996031,9.24290534 C20.9785672,8.3784481 20.9436396,7.51399087 20.8563207,6.65389958 C20.7733677,5.82436991 20.4764834,5.06032943 19.9132764,4.41853542 C19.1361381,3.53661441 18.1188728,3.16114308 16.9924588,3.0956539 C15.695773,3.01706688 14.3903552,2.99523715 13.0893034,2.98213931 C11.8100814,2.96467553 10.5264934,2.96467553 9.24727128,2.9996031 C8.29549514,3.02579877 7.33935305,3.04326255 6.40067474,3.18733876 C4.80273864,3.43619766 3.71561818,4.36177813 3.28775551,5.95098234 C3.15045035,6.47774803 3.07138975,7.01799548 3.05199444,7.56201627 C3.00396904,9.04207184 2.99523715,10.5221274 2.96467553,11.997817 Z M12.0109149,6.34391744 C15.1369319,6.34828339 17.6604485,8.8848978 17.6560826,12.0196468 C17.6517166,15.1369319 15.1151022,17.6560826 11.9934511,17.6517166 C8.87179996,17.6473507 6.34391744,15.1107363 6.34828339,11.9759873 C6.35264934,8.86306807 8.88926374,6.3395515 12.0109149,6.34391744 Z M12.0065489,8.33915459 C10.0025799,8.33915459 8.34352054,9.9763842 8.33915459,11.9541576 C8.33915459,13.9974201 9.95892042,15.6564795 11.9585235,15.6564795 C14.006152,15.6564795 15.6564795,14.0279817 15.6564795,12.0065489 C15.6590299,11.03614 15.2758614,10.1044889 14.591316,9.4166681 C13.9067705,8.7288473 12.9769589,8.34123616 12.0065489,8.33915459 L12.0065489,8.33915459 Z M19.1972614,6.12998611 C19.194852,6.86243148 18.5995604,7.45446938 17.8671128,7.45286445 C17.1346653,7.45125952 16.5419739,6.85661852 16.5427744,6.12416963 C16.5435749,5.39172074 17.1375646,4.79837666 17.8700139,4.79837269 C18.2227438,4.79848714 18.56093,4.93895817 18.8099378,5.18878511 C19.0589457,5.43861205 19.1983053,5.77725773 19.1972614,6.12998611 Z"></path></svg>