<svg xmlns="http://www.w3.org/2000/svg" xmlns:xlink="http://www.w3.org/1999/xlink" width="63" height="35" viewBox="0 0 63 35">
  <defs>
    <path id="logo_general_rapid-ssl-b" d="M4.48397289,7.02049064 L5.45180377,6.92671119 C5.51005314,7.25047518 5.62823038,7.48827068 5.80633904,7.64010482 C5.9844477,7.79193897 6.22472275,7.8678549 6.52717142,7.8678549 C6.84754296,7.8678549 7.08893818,7.80031205 7.25136432,7.66522431 C7.41379045,7.53013658 7.4950023,7.37216446 7.4950023,7.1913032 C7.4950023,7.07519473 7.46083731,6.97639238 7.39250632,6.89489317 C7.32417532,6.81339396 7.20487792,6.74250187 7.03461052,6.68221478 C6.91811178,6.64202339 6.65263305,6.5705731 6.23816636,6.46786177 C5.70496057,6.33612332 5.33082598,6.17424376 5.11575138,5.98221822 C4.81330272,5.71204276 4.66208065,5.38270157 4.66208065,4.99418479 C4.66208065,4.74410502 4.73321103,4.51021696 4.87547392,4.29251359 C5.01773681,4.07481022 5.22272672,3.90902322 5.49044979,3.79514761 C5.75817287,3.681272 6.08134002,3.62433505 6.45996094,3.62433505 C7.07830043,3.62433505 7.54372833,3.75942076 7.85625862,4.02959622 C8.1687889,4.29977169 8.33289284,4.66037237 8.34857537,5.1114091 L7.35386029,5.15494955 C7.31129345,4.90263693 7.22000013,4.72122018 7.0799776,4.61069385 C6.93995507,4.50016752 6.72992442,4.44490519 6.44987937,4.44490519 C6.16087287,4.44490519 5.93459985,4.50407496 5.77105354,4.62241628 C5.6657566,4.69833335 5.61310892,4.79992673 5.61310892,4.92719947 C5.61310892,5.04330794 5.66239611,5.1426685 5.76097197,5.22528414 C5.88643215,5.33022832 6.19111661,5.43963658 6.67503447,5.55351219 C7.15895233,5.6673878 7.51684454,5.78516914 7.74872185,5.90685974 C7.98059916,6.02855034 8.16206564,6.19489555 8.29312672,6.40590035 C8.42418781,6.61690516 8.48971737,6.87758707 8.48971737,7.18795393 C8.48971737,7.46929367 8.41130593,7.73276662 8.2544807,7.97838067 C8.09765547,8.22399473 7.87586311,8.40652789 7.58909697,8.52598564 C7.30233083,8.64544339 6.94499869,8.70517136 6.51708984,8.70517136 C5.89426963,8.70517136 5.41595985,8.56171258 5.08214614,8.2747907 C4.74833243,7.98786882 4.54894334,7.56977298 4.48397289,7.02049064 Z M10.3676643,8.61809045 L10.3676643,3.7080667 L14.0205538,3.7080667 L14.0205538,4.53868463 L11.3623794,4.53868463 L11.3623794,5.62719604 L13.835725,5.62719604 L13.835725,6.45446471 L11.3623794,6.45446471 L11.3623794,7.79082178 L14.1146485,7.79082178 L14.1146485,8.61809045 L10.3676643,8.61809045 Z M19.1514879,6.81283615 L20.1159582,7.11761935 C19.9680944,7.65350456 19.7222186,8.05150501 19.3783232,8.31163263 C19.0344279,8.57176024 18.5981242,8.7018221 18.0693992,8.7018221 C17.4152139,8.7018221 16.8775355,8.47909815 16.4563477,8.03364356 C16.0351599,7.58818897 15.8245692,6.97918689 15.8245692,6.20661903 C15.8245692,5.38939408 16.0362801,4.75471454 16.4597082,4.30256139 C16.8831363,3.85040824 17.4398576,3.62433505 18.1298886,3.62433505 C18.7325456,3.62433505 19.222057,3.80184437 19.5984375,4.15686833 C19.8224736,4.3667567 19.9904981,4.66818762 20.1025161,5.06117011 L19.1178826,5.29561872 C19.0596332,5.04107324 18.9380955,4.8401193 18.7532658,4.69275086 C18.568436,4.54538243 18.3438433,4.47169932 18.0794807,4.47169932 C17.714302,4.47169932 17.4180187,4.60231938 17.1906222,4.86356342 C16.9632256,5.12480747 16.849529,5.54792716 16.849529,6.13293518 C16.849529,6.75366889 16.9615453,7.19576757 17.1855814,7.45924446 C17.4096174,7.72272136 17.7008599,7.85445784 18.0593176,7.85445784 C18.3236801,7.85445784 18.5510733,7.77072703 18.7415039,7.6032629 C18.9319346,7.43579877 19.0685945,7.17232582 19.1514879,6.81283615 Z M22.0039867,3.7080667 L22.9987018,3.7080667 L22.9987018,6.36738379 C22.9987018,6.7893934 23.0110236,7.06291405 23.0356676,7.18795393 C23.0782344,7.38891089 23.1796092,7.55023225 23.339795,7.67192285 C23.4999807,7.79361345 23.7189727,7.85445784 23.9967774,7.85445784 C24.2790628,7.85445784 24.4918939,7.79696268 24.6352769,7.68197064 C24.77866,7.56697861 24.8649126,7.42575264 24.8940373,7.25828851 C24.923162,7.09082438 24.9377241,6.8128381 24.9377241,6.42432131 L24.9377241,3.7080667 L25.9324392,3.7080667 L25.9324392,6.28700141 C25.9324392,6.87647515 25.9055552,7.29289638 25.8517866,7.53627758 C25.7980179,7.77965878 25.6988835,7.98507837 25.5543802,8.1525425 C25.409877,8.32000663 25.2166488,8.45341772 24.9746898,8.55277977 C24.7327309,8.65214182 24.4168448,8.7018221 24.0270221,8.7018221 C23.5565464,8.7018221 23.1997744,8.64767618 22.9566952,8.5393827 C22.7136161,8.43108923 22.5215081,8.29042147 22.3803654,8.11737521 C22.2392227,7.94432894 22.1462491,7.76291218 22.1014419,7.5731195 C22.0364715,7.29177976 22.0039867,6.87647495 22.0039867,6.3271926 L22.0039867,3.7080667 Z M28.0254596,8.61809045 L28.0254596,3.7080667 L30.119066,3.7080667 C30.6455507,3.7080667 31.0280865,3.75216493 31.2666849,3.8403627 C31.5052833,3.92856048 31.6962712,4.08541619 31.8396542,4.31093456 C31.9830373,4.53645292 32.0547278,4.79434381 32.0547278,5.08461497 C32.0547278,5.45303606 31.9460719,5.757258 31.728757,5.99728992 C31.511442,6.23732184 31.1865946,6.3885955 30.754205,6.45111544 C30.9692796,6.57615532 31.1468255,6.71347385 31.2868481,6.86307514 C31.4268706,7.01267643 31.6156181,7.2783822 31.8530963,7.66020042 L32.4546301,8.61809045 L31.2650047,8.61809045 L30.5458525,7.54967464 C30.2904515,7.16785643 30.115706,6.9272699 30.0216108,6.82790785 C29.9275157,6.7285458 29.8278211,6.66044474 29.7225242,6.62360263 C29.6172273,6.58676052 29.4503229,6.56833975 29.2218061,6.56833975 L29.0201747,6.56833975 L29.0201747,8.61809045 L28.0254596,8.61809045 Z M29.0201747,5.78461153 L29.7561294,5.78461153 C30.2333262,5.78461153 30.5312897,5.76451614 30.6500288,5.72432475 C30.7687679,5.68413336 30.8617415,5.61491589 30.9289523,5.51667027 C30.9961631,5.41842464 31.029768,5.29561946 31.029768,5.14825102 C31.029768,4.98301975 30.9855215,4.84960866 30.8970273,4.74801375 C30.8085331,4.64641884 30.6836348,4.58222522 30.5223289,4.55543096 C30.4416759,4.54426669 30.1997206,4.53868463 29.7964557,4.53868463 L29.0201747,4.53868463 L29.0201747,5.78461153 Z M34.0334904,8.61809045 L34.0334904,3.7080667 L37.6863799,3.7080667 L37.6863799,4.53868463 L35.0282055,4.53868463 L35.0282055,5.62719604 L37.5015511,5.62719604 L37.5015511,6.45446471 L35.0282055,6.45446471 L35.0282055,7.79082178 L37.7804746,7.79082178 L37.7804746,8.61809045 L34.0334904,8.61809045 Z M39.661782,3.7080667 L41.4798255,3.7080667 C41.8898114,3.7080667 42.202337,3.7393262 42.4174116,3.80184614 C42.7064181,3.88669464 42.9539743,4.03741009 43.1600874,4.25399704 C43.3662006,4.47058398 43.5230235,4.73573154 43.6305608,5.04944768 C43.7380981,5.36316382 43.7918659,5.75000015 43.7918659,6.2099683 C43.7918659,6.61411507 43.7414586,6.96243523 43.6406423,7.25493925 C43.5174225,7.61219606 43.3415569,7.90134645 43.1130401,8.1223991 C42.9405323,8.28986324 42.7075383,8.4204833 42.4140511,8.51426321 C42.1944958,8.58348172 41.901013,8.61809045 41.5335939,8.61809045 L39.661782,8.61809045 L39.661782,3.7080667 Z M40.6564971,4.53868463 L40.6564971,7.79082178 L41.3991729,7.79082178 C41.6769776,7.79082178 41.8774868,7.77519203 42.0007067,7.74393206 C42.1620126,7.70374067 42.2958722,7.63563961 42.4022893,7.53962685 C42.5087064,7.44361408 42.5955191,7.28564195 42.6627299,7.06570573 C42.7299407,6.8457695 42.7635456,6.5460132 42.7635456,6.16642784 C42.7635456,5.78684248 42.7299407,5.49545926 42.6627299,5.29226945 C42.5955191,5.08907964 42.5014253,4.93054931 42.3804459,4.8166737 C42.2594664,4.70279809 42.106004,4.62576575 41.9200541,4.58557436 C41.7811518,4.55431439 41.508952,4.53868463 41.1034468,4.53868463 L40.6564971,4.53868463 Z M48.633209,3.7080667 L50.602476,3.7080667 C50.9922987,3.7080667 51.2829811,3.72425466 51.474532,3.75663106 C51.6660828,3.78900745 51.8374678,3.85655031 51.9886921,3.95926164 C52.1399164,4.06197297 52.2659348,4.1987333 52.3667511,4.36954671 C52.4675673,4.54036012 52.5179746,4.73182457 52.5179746,4.9439458 C52.5179746,5.17392988 52.4558056,5.38493151 52.3314656,5.57695705 C52.2071255,5.76898259 52.038541,5.91299958 51.8257067,6.00901235 C52.125915,6.09609369 52.3566687,6.24457633 52.5179746,6.45446471 C52.6792806,6.66435308 52.7599323,6.91107987 52.7599323,7.19465246 C52.7599323,7.41793797 52.7078448,7.63507987 52.603668,7.84608467 C52.4994912,8.05708948 52.3572305,8.2256675 52.1768815,8.35182382 C51.9965324,8.47798013 51.77418,8.55557068 51.5098175,8.58459779 C51.3440308,8.60246063 50.9441324,8.61362474 50.3101104,8.61809045 L48.633209,8.61809045 L48.633209,3.7080667 Z M49.6279241,4.52528757 L49.6279241,5.6606887 L50.2798657,5.6606887 C50.6674481,5.6606887 50.9082832,5.65510664 51.0023784,5.64394237 C51.1726457,5.62384667 51.3065053,5.56523511 51.403961,5.46810591 C51.5014166,5.37097671 51.5501437,5.24314768 51.5501437,5.08461497 C51.5501437,4.93278082 51.5081376,4.80941743 51.4241241,4.71452109 C51.3401106,4.61962475 51.2152124,4.5621296 51.0494257,4.5420339 C50.9508498,4.53086962 50.6674485,4.52528757 50.1992131,4.52528757 L49.6279241,4.52528757 Z M49.6279241,6.47790957 L49.6279241,7.79082178 L50.5487076,7.79082178 C50.9071653,7.79082178 51.1345585,7.78077409 51.230894,7.76067839 C51.3787578,7.73388413 51.4991753,7.6685741 51.5921503,7.56474634 C51.6851253,7.46091858 51.731612,7.32192544 51.731612,7.14776274 C51.731612,7.0003943 51.6957668,6.8753563 51.6240753,6.77264496 C51.5523837,6.66993363 51.4487686,6.59513411 51.3132268,6.54824415 C51.177685,6.50135419 50.8836421,6.47790957 50.4310893,6.47790957 L49.6279241,6.47790957 Z M55.9350415,8.61809045 L55.9350415,6.55159342 L54.1304402,3.7080667 L55.296542,3.7080667 L56.4559227,5.6506409 L57.5917798,3.7080667 L58.7377184,3.7080667 L56.9263961,6.55829195 L56.9263961,8.61809045 L55.9350415,8.61809045 Z"/>
    <filter id="logo_general_rapid-ssl-a" width="100%" height="100%" x="0%" y="0%" filterUnits="objectBoundingBox">
      <feOffset in="SourceAlpha" result="shadowOffsetOuter1"/>
      <feColorMatrix in="shadowOffsetOuter1" values="0 0 0 0 0   0 0 0 0 0   0 0 0 0 0  0 0 0 0.741762908 0"/>
    </filter>
  </defs>
  <g fill="none" fill-rule="evenodd">
    <path fill="#774C2B" fill-rule="nonzero" d="M1.41176471,0 L61.5882353,0 C62.3679314,-1.42748028e-16 63,0.629951106 63,1.40703518 L63,33.5929648 C63,34.3700489 62.3679314,35 61.5882353,35 L1.41176471,35 C0.632068588,35 9.54852354e-17,34.3700489 0,33.5929648 L0,1.40703518 C-9.54852354e-17,0.629951106 0.632068588,1.42748028e-16 1.41176471,0 Z M1.41176471,0.527638191 C0.924454633,0.527638191 0.529411765,0.921357632 0.529411765,1.40703518 L0.529411765,33.5929648 C0.529411765,34.0786424 0.924454633,34.4723618 1.41176471,34.4723618 L61.5882353,34.4723618 C62.0755454,34.4723618 62.4705882,34.0786424 62.4705882,33.5929648 L62.4705882,1.40703518 C62.4705882,0.921357632 62.0755454,0.527638191 61.5882353,0.527638191 L1.41176471,0.527638191 Z"/>
    <path fill="#FFF" d="M1.41176471,0.527638191 C0.924454633,0.527638191 0.529411765,0.921357632 0.529411765,1.40703518 L0.529411765,33.5929648 C0.529411765,34.0786424 0.924454633,34.4723618 1.41176471,34.4723618 L61.5882353,34.4723618 C62.0755454,34.4723618 62.4705882,34.0786424 62.4705882,33.5929648 L62.4705882,1.40703518 C62.4705882,0.921357632 62.0755454,0.527638191 61.5882353,0.527638191 L1.41176471,0.527638191 Z"/>
    <path fill="#FAD100" d="M5.27833572,24.2713568 L61.5882353,24.2713568 L61.5882353,29.5505144 C61.5882353,31.6859626 59.8571125,33.4170854 57.7216643,33.4170854 L1.41176471,33.4170854 L1.41176471,28.1379278 C1.41176471,26.0024796 3.14288752,24.2713568 5.27833572,24.2713568 Z"/>
    <path fill="#774C2B" d="M5.27833572 1.58291457L61.5882353 1.58291457 61.5882353 6.8620722C61.5882353 8.99752041 59.8571125 10.7286432 57.7216643 10.7286432L1.41176471 10.7286432 1.41176471 5.44948559C1.41176471 3.31403738 3.14288752 1.58291457 5.27833572 1.58291457zM22.0198951 21.2147549L22.0198951 15.8456578 23.3963657 15.8456578 23.3963657 21.2147549 22.0198951 21.2147549zM22.7008143 13.7821332C23.1292927 13.7821332 23.4766158 14.1252346 23.4766158 14.5484128 23.4766158 14.971591 23.1292927 15.3146179 22.7008143 15.3146179 22.272336 15.3146179 21.9250129 14.971591 21.9250129 14.5484128 21.9250129 14.1252346 22.272336 13.7821332 22.7008143 13.7821332zM27.4318756 14.4377205L28.7873786 13.7480912 28.7873786 21.2147549 27.4318756 21.2147549 27.4318756 20.9338528 27.3471755 20.8998108C27.3471755 20.8998108 26.8990118 21.3107727 26.1919962 21.3107727 25.2093848 21.3107727 24.1145439 20.7380183 24.1145439 18.4647296 24.1145439 16.1915898 25.4421403 15.7147787 26.2006699 15.7147787 26.9593503 15.7147787 27.4318756 16.1575479 27.4318756 16.1575479L27.4318756 14.4377205zM27.4318756 19.5374615L27.4318756 17.5111819C27.4318756 17.5111819 27.1316919 17.0004033 26.4248271 17.0004033 25.7179624 17.0004033 25.4938051 17.6644825 25.4938051 18.6023873 25.4938051 19.5405155 25.9765126 20.0568064 26.5110357 20.0568064 27.0454834 20.0568064 27.4318756 19.5374615 27.4318756 19.5374615zM19.1836869 15.7147787C19.8042678 15.7147787 21.2698129 16.0639138 21.2698129 18.439105 21.2698129 20.8145197 20.0888389 21.3107727 19.2181553 21.3107727 18.3474717 21.3107727 18.0153086 20.8998108 18.0153086 20.8998108L18.0153086 22.4492048 16.6306169 23.1644587 16.6306169 15.8457323 18.0153086 15.8457323 18.0153086 16.1489815C18.0153086 16.1489815 18.5629553 15.7147787 19.1836869 15.7147787zM19.0026716 20.048389C19.6835909 20.048389 19.8991499 19.3021472 19.8991499 18.6023873 19.8991499 17.9028508 19.765802 17.0088952 18.8905176 17.0088952 18.2738588 17.0088952 18.0153086 17.50269 18.0153086 17.50269L18.0153086 19.5374615C18.0153086 19.5374615 18.3216016 20.048389 19.0026716 20.048389zM13.5755311 15.7261012C15.6973322 15.7261012 15.7227497 17.2976933 15.7227497 17.2976933L15.7227497 21.2147549 14.3745628 21.2147549 14.3745628 20.8758995C14.3745628 20.8660668 13.6355678 21.3107727 13.1551985 21.3107727 12.6748291 21.3107727 11.1191534 21.113076 11.1191534 19.4524683 11.1191534 17.7918606 12.7148033 17.6536069 13.34534 17.6536069 13.9758766 17.6536069 14.3745628 17.8314148 14.3745628 17.8314148L14.3745628 17.5546841C14.3745628 17.4262632 14.3745628 16.8330985 13.5755311 16.8330985 12.4345313 16.8330985 12.1264281 17.1593651 12.1264281 17.1593651L12.1264281 15.9632777C12.1264281 15.9632777 12.5647114 15.7261012 13.5755311 15.7261012zM14.3745628 19.6325853L14.3745628 18.9691765C14.3745628 18.9691765 14.1607385 18.7066734 13.4747659 18.7066734 12.7887179 18.7066734 12.4474286 18.8768833 12.4474286 19.405614 12.4474286 19.9341957 12.8928771 20.157517 13.331085 20.157517 13.7692929 20.157517 14.2470224 19.8560556 14.3745628 19.6325853zM9.48209622 18.3850252C9.43201532 18.4145978 9.42198405 18.4443193 9.44197116 18.5036134 9.46203369 18.562982 10.8032063 21.2147549 10.8032063 21.2147549L9.18183708 21.2147549 7.91073252 18.7013101C7.91073252 18.7013101 7.85695589 18.6438038 7.81690625 18.6438038L6.39193868 18.6438038C6.32187067 18.6438038 6.33054432 18.6680131 6.33054432 18.6814958L6.33054432 21.2147549 4.95128311 21.2147549 4.95128311 14.0631098 8.57128754 14.0631098C8.57128754 14.0631098 9.55819807 14.1307468 10.213926 14.7132594 10.6126122 15.0676088 10.8131621 15.7245369 10.8131621 16.3487639 10.8131621 17.9994644 9.53210169 18.3553036 9.48209622 18.3850252zM8.49118826 17.2976933C8.89153378 17.2976933 9.35191604 16.9706072 9.35191604 16.4081325 9.35191604 15.8457323 9.09170654 15.3999091 8.51125079 15.3999091 7.93079505 15.3999091 6.33054432 15.3900019 6.33054432 15.3900019L6.33054432 17.2976933 8.49118826 17.2976933z"/>
    <path fill="#EC501F" d="M47.45112,20.5785761 L47.4526125,20.5792056 L47.4520953,20.5789875 L47.4526125,20.5792056 C47.4815584,20.5914431 47.504841,20.6060043 47.5224609,20.6228898 C47.5562387,20.6558674 47.5975986,20.7111727 47.6465418,20.7888073 L47.7489085,20.9526637 L47.5834674,20.9526637 L47.5090188,20.8207542 C47.4504248,20.7170123 47.4032056,20.6520887 47.3673598,20.6259815 C47.3425435,20.6067446 47.3063536,20.5971263 47.2587891,20.5971263 L47.1791705,20.5971263 L47.1791705,20.9526637 L47.0437155,20.9526637 L47.0437155,20.1158625 L47.3322036,20.1158625 C47.4307794,20.1158625 47.5021252,20.1235915 47.5462431,20.1390497 C47.590361,20.154508 47.6255169,20.1814736 47.6517119,20.2199474 C47.6779068,20.2584212 47.6910041,20.299299 47.6910041,20.3425821 C47.6910041,20.4037279 47.6691179,20.4569721 47.6253447,20.5023163 C47.5815726,20.5476592 47.5234983,20.5730789 47.45112,20.5785761 Z M45.3673397,19.8425207 L46.201594,21.2147773 L42.2703187,21.2147773 L42.2703187,14.0631322 L43.6884982,14.0631322 L43.6884982,19.8425207 L45.3673397,19.8425207 Z M38.7693318,16.8812415 C40.4071432,17.2977156 41.1658236,17.6645048 41.1658236,19.1799313 C41.1658236,20.6953578 39.8123571,21.310795 38.3641592,21.310795 C36.459124,21.310795 35.5107546,20.0484114 35.5107546,20.0484114 L36.5021151,19.1629476 C36.5021151,19.1629476 37.2607955,19.9716866 38.4503678,19.9716866 C39.6400155,19.9716866 39.7434959,19.3671994 39.7434959,19.1799313 C39.7434959,19.0956086 39.8473534,18.4059792 38.0673696,18.1249281 C35.8476694,17.6481915 35.8124468,16.6458528 35.8124468,16.0894118 C35.8124468,14.9570878 36.665934,13.9353817 38.3210173,13.9353817 C40.0106443,13.9353817 41.0020048,15.0251718 41.0020048,15.0251718 L39.9934478,15.9787195 C39.9934478,15.9787195 39.3469215,15.2550482 38.3124945,15.2550482 C37.3210586,15.2550482 37.2175781,15.7914514 37.2175781,15.9617357 C37.2175781,16.1319456 37.131445,16.4646929 38.7693318,16.8812415 Z M32.7781023,16.8812415 C34.4159892,17.2977156 35.1745187,17.6645048 35.1745187,19.1799313 C35.1745187,20.6953578 33.821203,21.310795 32.3729297,21.310795 C30.4678191,21.310795 29.5196006,20.0484114 29.5196006,20.0484114 L30.5109611,19.1629476 C30.5109611,19.1629476 31.2694906,19.9716866 32.4591383,19.9716866 C33.648786,19.9716866 33.7522664,19.3671994 33.7522664,19.1799313 C33.7522664,19.0956086 33.8561239,18.4059792 32.0760646,18.1249281 C29.8564399,17.6481915 29.8212927,16.6458528 29.8212927,16.0894118 C29.8212927,14.9570878 30.6746291,13.9353817 32.3299386,13.9353817 C34.0194902,13.9353817 35.0107753,15.0251718 35.0107753,15.0251718 L34.0021429,15.9787195 C34.0021429,15.9787195 33.355692,15.2550482 32.3211895,15.2550482 C31.329829,15.2550482 31.2263486,15.7914514 31.2263486,15.9617357 C31.2263486,16.1319456 31.1402155,16.4646929 32.7781023,16.8812415 Z M47.385972,19.7448669 C47.5169469,19.7448669 47.6448179,19.7783592 47.7695887,19.8453449 C47.8943595,19.9123305 47.9915553,20.0081701 48.0611788,20.1328665 C48.1308023,20.2575628 48.1656135,20.3875818 48.1656135,20.5229271 C48.1656135,20.6568984 48.1313193,20.7857151 48.0627298,20.9093809 C47.9941403,21.0330467 47.8979786,21.129058 47.7742417,21.1974178 C47.6505049,21.2657775 47.5210829,21.2999568 47.385972,21.2999568 C47.250861,21.2999568 47.121439,21.2657775 46.9977022,21.1974178 C46.8739654,21.129058 46.7776313,21.0330467 46.7086972,20.9093809 C46.639763,20.7857151 46.6052964,20.6568984 46.6052964,20.5229271 C46.6052964,20.3875818 46.64028,20.2575628 46.7102482,20.1328665 C46.7802163,20.0081701 46.8775844,19.9123305 47.0023552,19.8453449 C47.1271261,19.7783592 47.254997,19.7448669 47.385972,19.7448669 Z M47.385972,19.8736848 C47.2763666,19.8736848 47.1696926,19.901681 47.0659467,19.9576741 C46.9622008,20.0136672 46.881032,20.0937053 46.822438,20.1977907 C46.7638439,20.3018761 46.7345473,20.4102538 46.7345473,20.5229271 C46.7345473,20.6349134 46.7633269,20.7422606 46.8208869,20.8449719 C46.878447,20.9476833 46.9589264,21.0277213 47.0623277,21.0850885 C47.1657289,21.1424557 47.2736093,21.1711389 47.385972,21.1711389 C47.4983347,21.1711389 47.606215,21.1424557 47.7096163,21.0850885 C47.8130175,21.0277213 47.8933246,20.9476833 47.95054,20.8449719 C48.0077553,20.7422606 48.0363626,20.6349134 48.0363626,20.5229271 C48.0363626,20.4102538 48.0072383,20.3018761 47.948989,20.1977907 C47.8907396,20.0937053 47.8095708,20.0136672 47.7054802,19.9576741 C47.6013896,19.901681 47.494888,19.8736848 47.385972,19.8736848 Z M47.1791705,20.4817054 L47.3435777,20.4817054 C47.4221626,20.4817054 47.4757581,20.470026 47.5043658,20.4466669 C47.5329735,20.4233078 47.5472771,20.3923918 47.5472771,20.353918 C47.5472771,20.3291849 47.5403838,20.3070284 47.526597,20.287448 C47.5128101,20.2678676 47.4936812,20.2532683 47.4692096,20.2436499 C47.4447379,20.2340314 47.3994144,20.2292223 47.3332376,20.2292223 L47.1791705,20.2292223 L47.1791705,20.4817054 Z"/>
    <path fill="#774C2B" d="M51.7058824 16.5326633L51.7058824 15.4915755C51.7058824 13.1524872 53.6020881 11.2562814 55.9411765 11.2562814 58.2802648 11.2562814 60.1764706 13.1524872 60.1764706 15.4915755L60.1764706 16.5326633 60.5337159 16.5326633C61.1161109 16.5326633 61.5882353 17.0047877 61.5882353 17.5871827L61.5882353 17.5886967C61.5882353 18.1710917 61.1161109 18.6432161 60.5337159 18.6432161L51.348637 18.6432161C50.7662421 18.6432161 50.2941176 18.1710917 50.2941176 17.5886967L50.2941176 17.5871827C50.2941176 17.0047877 50.7662421 16.5326633 51.348637 16.5326633L51.7058824 16.5326633zM51.348637 18.9949749L60.5337159 18.9949749C61.1161109 18.9949749 61.5882353 19.4670993 61.5882353 20.0494942L61.5882353 20.0510083C61.5882353 20.6334032 61.1161109 21.1055276 60.5337159 21.1055276L51.348637 21.1055276C50.7662421 21.1055276 50.2941176 20.6334032 50.2941176 20.0510083L50.2941176 20.0494942C50.2941176 19.4670993 50.7662421 18.9949749 51.348637 18.9949749zM51.348637 21.4572864L60.5337159 21.4572864C61.1161109 21.4572864 61.5882353 21.9294108 61.5882353 22.5118058L61.5882353 22.5133198C61.5882353 23.0957148 61.1161109 23.5678392 60.5337159 23.5678392L51.348637 23.5678392C50.7662421 23.5678392 50.2941176 23.0957148 50.2941176 22.5133198L50.2941176 22.5118058C50.2941176 21.9294108 50.7662421 21.4572864 51.348637 21.4572864zM56.0294118 13.0150754C54.5187505 13.0150754 53.2941176 14.2397083 53.2941176 15.7503695L53.2941176 16.5326633 58.7647059 16.5326633 58.7647059 15.7503695C58.7647059 14.2397083 57.540073 13.0150754 56.0294118 13.0150754zM5.58389821 31.819228L5.58389821 31.2318183C5.28920464 31.194833 5.04963328 31.129022 4.86517693 31.0343833 4.68072059 30.9397446 4.52137016 30.7869109 4.38712086 30.5758774 4.25287157 30.364844 4.17483352 30.107039 4.15300437 29.8024547L4.74566291 29.6914995C4.79150414 30.0069618 4.87227079 30.23866 4.9879653 30.386601 5.15386687 30.5954588 5.35250918 30.7118518 5.58389821 30.7357834L5.58389821 28.8658625C5.34159461 28.8201749 5.09383743 28.7266254 4.84061926 28.5852112 4.65288854 28.4807823 4.50827257 28.3361069 4.406767 28.1511807 4.30526144 27.9662545 4.25450942 27.756312 4.25450942 27.521347 4.25450942 27.1036313 4.40294544 26.7653302 4.69982192 26.5064335 4.89846722 26.3323853 5.19315636 26.2257824 5.58389821 26.1866216L5.58389821 25.9059703 5.93098001 25.9059703 5.93098001 26.1866216C6.27369772 26.2192556 6.5454666 26.3193318 6.74629481 26.4868532 7.00387882 26.7000622 7.15886348 26.9926764 7.21125345 27.3647044L6.60222312 27.4560792C6.56729647 27.2254654 6.49471562 27.0487003 6.3844784 26.9257788 6.27424118 26.8028573 6.12307656 26.7218173 5.93098001 26.6826564L5.93098001 28.3763544C6.22785649 28.4503249 6.42431593 28.5079775 6.5203642 28.549314 6.70372909 28.6298112 6.85325654 28.7277119 6.96895106 28.8430188 7.08464557 28.9583257 7.17359803 29.0953866 7.23581112 29.2542056 7.29802421 29.4130246 7.32913028 29.5848946 7.32913028 29.7698208 7.32913028 30.1766584 7.19924877 30.5160473 6.93948185 30.7879976 6.67971492 31.0599479 6.34355101 31.2057111 5.93098001 31.2252915L5.93098001 31.819228 5.58389821 31.819228zM5.58389821 26.6761297C5.3546921 26.7109393 5.17405856 26.8023132 5.04199219 26.9502542 4.90992581 27.0981952 4.84389361 27.2733285 4.84389361 27.4756595 4.84389361 27.675815 4.90010284 27.8433338 5.01252298 27.9782212 5.12494312 28.1131085 5.31539962 28.2207992 5.58389821 28.3012965L5.58389821 26.6761297zM5.93098001 30.7357834C6.16018612 30.7075006 6.34955118 30.6085122 6.49908088 30.4388152 6.64861058 30.2691182 6.72337431 30.0591757 6.72337431 29.8089814 6.72337431 29.5957724 6.67043941 29.4244463 6.56456801 29.2949979 6.45869662 29.1655496 6.24750273 29.0497005 5.93098001 28.9474472L5.93098001 30.7357834zM10.1418026 31.1306533L9.55241843 31.1306533 9.55241843 27.3875481C9.41052893 27.5224354 9.22443819 27.6573208 8.99414063 27.7922081 8.76384306 27.9270955 8.55701493 28.0282595 8.37365005 28.0957031L8.37365005 27.5278737C8.70327026 27.373406 8.99141076 27.186307 9.23808019 26.9665711 9.48474962 26.7468353 9.65938023 26.5336295 9.76197725 26.3269472L10.1418026 26.3269472 10.1418026 31.1306533zM11.651281 28.7712243C11.651281 28.2055677 11.7096731 27.7503297 11.8264591 27.4054967 11.9432451 27.0606637 12.1167842 26.7947003 12.3470818 26.6075985 12.5773794 26.4204967 12.867157 26.3269472 13.2164235 26.3269472 13.4740075 26.3269472 13.6999358 26.378617 13.8942153 26.4819581 14.0884948 26.5852992 14.2489366 26.7343258 14.3755457 26.9290422 14.5021548 27.1237586 14.601476 27.3608957 14.6735122 27.6404606 14.7455484 27.9200255 14.7815659 28.296943 14.7815659 28.7712243 14.7815659 29.3325297 14.7237196 29.7855921 14.608025 30.1304251 14.4923305 30.4752581 14.3193371 30.7417653 14.0890395 30.929955 13.858742 31.1181446 13.5678729 31.2122379 13.2164235 31.2122379 12.7536454 31.2122379 12.3901955 31.0468946 12.1260627 30.7162031 11.80954 30.3180679 11.651281 29.6697481 11.651281 28.7712243zM12.257037 28.7712243C12.257037 29.5566167 12.3492638 30.0792974 12.5337201 30.3392819 12.7181765 30.5992663 12.945742 30.7292566 13.2164235 30.7292566 13.487105 30.7292566 13.7146705 30.5987225 13.8991268 30.3376502 14.0835832 30.0765779 14.17581 29.5544411 14.17581 28.7712243 14.17581 27.9836562 14.0835832 27.4604317 13.8991268 27.201535 13.7146705 26.9426383 13.4849221 26.8131919 13.2098748 26.8131919 12.9391933 26.8131919 12.7230879 26.9274093 12.5615522 27.1558476 12.358541 27.4473783 12.257037 27.9858318 12.257037 28.7712243zM15.6983858 31.1306533L15.6983858 30.4616589 16.3696289 30.4616589 16.3696289 31.1306533C16.3696289 31.3764963 16.3259713 31.5750171 16.2386546 31.7262214 16.151338 31.8774258 16.012725 31.9943627 15.8228114 32.0770356L15.6590935 31.8257548C15.7835197 31.7713647 15.8752008 31.6914125 15.9341395 31.5858958 15.9930782 31.4803791 16.0258214 31.3286331 16.0323702 31.1306533L15.6983858 31.1306533zM17.2438821 28.7712243C17.2438821 28.2055677 17.3022742 27.7503297 17.4190602 27.4054967 17.5358462 27.0606637 17.7093853 26.7947003 17.9396829 26.6075985 18.1699805 26.4204967 18.4597581 26.3269472 18.8090246 26.3269472 19.0666086 26.3269472 19.2925369 26.378617 19.4868164 26.4819581 19.6810959 26.5852992 19.8415377 26.7343258 19.9681468 26.9290422 20.0947559 27.1237586 20.1940771 27.3608957 20.2661133 27.6404606 20.3381495 27.9200255 20.374167 28.296943 20.374167 28.7712243 20.374167 29.3325297 20.3163207 29.7855921 20.2006261 30.1304251 20.0849316 30.4752581 19.9119382 30.7417653 19.6816406 30.929955 19.4513431 31.1181446 19.160474 31.2122379 18.8090246 31.2122379 18.3462465 31.2122379 17.9827966 31.0468946 17.7186638 30.7162031 17.4021411 30.3180679 17.2438821 29.6697481 17.2438821 28.7712243zM17.8496381 28.7712243C17.8496381 29.5566167 17.9418649 30.0792974 18.1263212 30.3392819 18.3107776 30.5992663 18.5383431 30.7292566 18.8090246 30.7292566 19.0797061 30.7292566 19.3072716 30.5987225 19.4917279 30.3376502 19.6761843 30.0765779 19.7684111 29.5544411 19.7684111 28.7712243 19.7684111 27.9836562 19.6761843 27.4604317 19.4917279 27.201535 19.3072716 26.9426383 19.0775232 26.8131919 18.8024759 26.8131919 18.5317944 26.8131919 18.315689 26.9274093 18.1541533 27.1558476 17.9511421 27.4473783 17.8496381 27.9858318 17.8496381 28.7712243zM20.9733743 28.7712243C20.9733743 28.2055677 21.0317664 27.7503297 21.1485524 27.4054967 21.2653384 27.0606637 21.4388775 26.7947003 21.6691751 26.6075985 21.8994727 26.4204967 22.1892503 26.3269472 22.5385168 26.3269472 22.7961008 26.3269472 23.0220291 26.378617 23.2163086 26.4819581 23.4105881 26.5852992 23.5710299 26.7343258 23.697639 26.9290422 23.8242481 27.1237586 23.9235693 27.3608957 23.9956055 27.6404606 24.0676417 27.9200255 24.1036592 28.296943 24.1036592 28.7712243 24.1036592 29.3325297 24.0458128 29.7855921 23.9301183 30.1304251 23.8144238 30.4752581 23.6414304 30.7417653 23.4111328 30.929955 23.1808352 31.1181446 22.8899661 31.2122379 22.5385168 31.2122379 22.0757387 31.2122379 21.7122888 31.0468946 21.448156 30.7162031 21.1316333 30.3180679 20.9733743 29.6697481 20.9733743 28.7712243zM21.5791303 28.7712243C21.5791303 29.5566167 21.6713571 30.0792974 21.8558134 30.3392819 22.0402698 30.5992663 22.2678353 30.7292566 22.5385168 30.7292566 22.8091983 30.7292566 23.0367638 30.5987225 23.2212201 30.3376502 23.4056765 30.0765779 23.4979033 29.5544411 23.4979033 28.7712243 23.4979033 27.9836562 23.4056765 27.4604317 23.2212201 27.201535 23.0367638 26.9426383 22.8070154 26.8131919 22.5319681 26.8131919 22.2612866 26.8131919 22.0451812 26.9274093 21.8836455 27.1558476 21.6806343 27.4473783 21.5791303 27.9858318 21.5791303 28.7712243zM24.7028665 28.7712243C24.7028665 28.2055677 24.7612586 27.7503297 24.8780446 27.4054967 24.9948305 27.0606637 25.1683697 26.7947003 25.3986673 26.6075985 25.6289648 26.4204967 25.9187425 26.3269472 26.268009 26.3269472 26.525593 26.3269472 26.7515213 26.378617 26.9458008 26.4819581 27.1400802 26.5852992 27.3005221 26.7343258 27.4271312 26.9290422 27.5537403 27.1237586 27.6530615 27.3608957 27.7250977 27.6404606 27.7971339 27.9200255 27.8331514 28.296943 27.8331514 28.7712243 27.8331514 29.3325297 27.775305 29.7855921 27.6596105 30.1304251 27.543916 30.4752581 27.3709226 30.7417653 27.140625 30.929955 26.9103274 31.1181446 26.6194583 31.2122379 26.268009 31.2122379 25.8052309 31.2122379 25.441781 31.0468946 25.1776482 30.7162031 24.8611255 30.3180679 24.7028665 29.6697481 24.7028665 28.7712243zM25.3086225 28.7712243C25.3086225 29.5566167 25.4008493 30.0792974 25.5853056 30.3392819 25.769762 30.5992663 25.9973275 30.7292566 26.268009 30.7292566 26.5386905 30.7292566 26.766256 30.5987225 26.9507123 30.3376502 27.1351687 30.0765779 27.2273955 29.5544411 27.2273955 28.7712243 27.2273955 27.9836562 27.1351687 27.4604317 26.9507123 27.201535 26.766256 26.9426383 26.5365076 26.8131919 26.2614602 26.8131919 25.9907787 26.8131919 25.7746734 26.9274093 25.6131376 27.1558476 25.4101265 27.4473783 25.3086225 27.9858318 25.3086225 28.7712243zM31.3727309 31.1306533L30.0990062 26.3465276 30.7506032 26.3465276 31.4807847 29.4826427C31.5593696 29.8111587 31.627039 30.1374941 31.6837948 30.4616589 31.8060381 29.9503923 31.8780732 29.6556026 31.8999023 29.5772809L32.8134478 26.3465276 33.5796473 26.3465276 34.2672622 28.7679609C34.4397125 29.3684272 34.5641368 29.9329875 34.6405388 30.4616589 34.7016605 30.1592501 34.7813357 29.8122468 34.8795669 29.4206383L35.6326689 26.3465276 36.2711684 26.3465276 34.9548771 31.1306533 34.3425724 31.1306533 33.3307962 27.4854497C33.2456625 27.1808654 33.1954562 26.9937664 33.1801758 26.9241471 33.1299687 27.1438829 33.0830368 27.3309819 33.0393784 27.4854497L32.0210535 31.1306533 31.3727309 31.1306533zM38.8087948 30.7031495C38.5905033 30.8880757 38.3804008 31.0186099 38.1784812 31.094756 37.9765615 31.1709021 37.7599104 31.2089746 37.5285214 31.2089746 37.1465112 31.2089746 36.8529135 31.115969 36.6477194 30.929955 36.4425254 30.7439409 36.3399299 30.50626 36.3399299 30.2169048 36.3399299 30.0472079 36.3786761 29.8921985 36.4561696 29.7518722 36.5336631 29.6115458 36.6351671 29.4989601 36.7606847 29.4141116 36.8862024 29.3292631 37.027544 29.2650838 37.1847139 29.2215717 37.3004084 29.1911133 37.475039 29.1617431 37.708611 29.1334603 38.1844865 29.0768946 38.5348392 29.0094519 38.7596795 28.9311303 38.7618624 28.850633 38.7629538 28.7995071 38.7629538 28.7777511 38.7629538 28.5384348 38.7072903 28.3698281 38.5959616 28.271926 38.4453405 28.1392143 38.221595 28.0728594 37.9247185 28.0728594 37.6474883 28.0728594 37.442843 28.1212658 37.3107767 28.2180801 37.1787103 28.3148945 37.0810263 28.4862206 37.0177217 28.7320636L36.441435 28.6537423C36.4938249 28.4078993 36.5800488 28.2093785 36.7001091 28.0581742 36.8201695 27.9069698 36.9937087 27.7905768 37.2207318 27.7089917 37.447755 27.6274066 37.7107924 27.5866147 38.0098518 27.5866147 38.3067283 27.5866147 38.5479368 27.6214238 38.7334846 27.6910431 38.9190324 27.7606624 39.0554626 27.8482291 39.1427792 27.9537458 39.2300958 28.0592625 39.2912165 28.1925161 39.3261432 28.3535107 39.3457894 28.4535884 39.3556124 28.6341607 39.3556124 28.895233L39.3556124 29.6784459C39.3556124 30.2245221 39.3681639 30.5698938 39.3932675 30.7145714 39.418371 30.859249 39.4680316 30.9979415 39.5422507 31.1306533L38.9266716 31.1306533C38.86555 31.0088195 38.8262581 30.8663197 38.8087948 30.7031495zM38.7596795 29.3912679C38.5457538 29.478292 38.22487 29.5522613 37.7970186 29.6131782 37.554715 29.6479878 37.3833587 29.6871481 37.2829446 29.7306601 37.1825305 29.7741722 37.1050382 29.8378076 37.0504653 29.9215683 36.9958924 30.005329 36.9686064 30.0983346 36.9686064 30.2005879 36.9686064 30.3572313 37.0280899 30.4877655 37.1470588 30.5921944 37.2660277 30.6966233 37.4401126 30.748837 37.6693187 30.748837 37.8963419 30.748837 38.0982585 30.6993427 38.2750747 30.6003528 38.4518908 30.5013629 38.5817723 30.3659337 38.6647231 30.1940611 38.7280277 30.0613494 38.7596795 29.8655481 38.7596795 29.6066514L38.7596795 29.3912679zM40.2626091 31.1306533L40.2626091 27.664936 40.7930549 27.664936 40.7930549 28.1903414C40.9283957 27.9444983 41.0533657 27.7824183 41.1679688 27.7040967 41.2825718 27.625775 41.4086333 27.5866147 41.5461569 27.5866147 41.7448022 27.5866147 41.9467189 27.6497062 42.1519129 27.7758912L41.9489028 28.3208768C41.8048304 28.2360284 41.6607601 28.1936047 41.5166877 28.1936047 41.3878957 28.1936047 41.2722029 28.2322211 41.1696059 28.309455 41.0670089 28.3866889 40.9938823 28.4938357 40.950224 28.6308986 40.8847366 28.8397565 40.8519933 29.0681913 40.8519933 29.31621L40.8519933 31.1306533 40.2626091 31.1306533zM42.4957204 31.1306533L42.4957204 27.664936 43.0261661 27.664936 43.0261661 28.1903414C43.1615069 27.9444983 43.2864769 27.7824183 43.40108 27.7040967 43.515683 27.625775 43.6417445 27.5866147 43.7792682 27.5866147 43.9779134 27.5866147 44.1798301 27.6497062 44.3850241 27.7758912L44.182014 28.3208768C44.0379416 28.2360284 43.8938714 28.1936047 43.7497989 28.1936047 43.6210069 28.1936047 43.5053142 28.2322211 43.4027171 28.309455 43.3001201 28.3866889 43.2269936 28.4938357 43.1833352 28.6308986 43.1178478 28.8397565 43.0851045 29.0681913 43.0851045 29.31621L43.0851045 31.1306533 42.4957204 31.1306533zM47.0045094 30.7031495C46.7862179 30.8880757 46.5761154 31.0186099 46.3741958 31.094756 46.1722761 31.1709021 45.955625 31.2089746 45.724236 31.2089746 45.3422258 31.2089746 45.0486281 31.115969 44.8434341 30.929955 44.63824 30.7439409 44.5356445 30.50626 44.5356445 30.2169048 44.5356445 30.0472079 44.5743907 29.8921985 44.6518842 29.7518722 44.7293777 29.6115458 44.8308817 29.4989601 44.9563994 29.4141116 45.081917 29.3292631 45.2232586 29.2650838 45.3804285 29.2215717 45.4961231 29.1911133 45.6707537 29.1617431 45.9043256 29.1334603 46.3802011 29.0768946 46.7305538 29.0094519 46.9553941 28.9311303 46.957577 28.850633 46.9586684 28.7995071 46.9586684 28.7777511 46.9586684 28.5384348 46.9030049 28.3698281 46.7916762 28.271926 46.6410551 28.1392143 46.4173096 28.0728594 46.1204331 28.0728594 45.8432029 28.0728594 45.6385576 28.1212658 45.5064913 28.2180801 45.3744249 28.3148945 45.2767409 28.4862206 45.2134364 28.7320636L44.6371496 28.6537423C44.6895396 28.4078993 44.7757634 28.2093785 44.8958238 28.0581742 45.0158841 27.9069698 45.1894233 27.7905768 45.4164465 27.7089917 45.6434697 27.6274066 45.906507 27.5866147 46.2055664 27.5866147 46.5024429 27.5866147 46.7436514 27.6214238 46.9291992 27.6910431 47.114747 27.7606624 47.2511772 27.8482291 47.3384938 27.9537458 47.4258104 28.0592625 47.4869311 28.1925161 47.5218578 28.3535107 47.541504 28.4535884 47.551327 28.6341607 47.551327 28.895233L47.551327 29.6784459C47.551327 30.2245221 47.5638786 30.5698938 47.5889821 30.7145714 47.6140856 30.859249 47.6637462 30.9979415 47.7379653 31.1306533L47.1223863 31.1306533C47.0612646 31.0088195 47.0219727 30.8663197 47.0045094 30.7031495zM46.9553941 29.3912679C46.7414684 29.478292 46.4205846 29.5522613 45.9927332 29.6131782 45.7504296 29.6479878 45.5790733 29.6871481 45.4786592 29.7306601 45.3782451 29.7741722 45.3007528 29.8378076 45.2461799 29.9215683 45.191607 30.005329 45.164321 30.0983346 45.164321 30.2005879 45.164321 30.3572313 45.2238046 30.4877655 45.3427734 30.5921944 45.4617423 30.6966233 45.6358272 30.748837 45.8650333 30.748837 46.0920565 30.748837 46.2939732 30.6993427 46.4707893 30.6003528 46.6476054 30.5013629 46.7774869 30.3659337 46.8604377 30.1940611 46.9237423 30.0613494 46.9553941 29.8655481 46.9553941 29.6066514L46.9553941 29.3912679zM48.4648725 31.1306533L48.4648725 27.664936 48.9953182 27.664936 48.9953182 28.1577075C49.2507193 27.7769771 49.6196265 27.5866147 50.1020508 27.5866147 50.3116107 27.5866147 50.50425 27.6241433 50.6799747 27.6992016 50.8556994 27.7742599 50.9872181 27.8727044 51.0745347 27.9945381 51.1618513 28.1163719 51.222972 28.2610472 51.2578987 28.4285686 51.2797278 28.5373487 51.2906422 28.7277111 51.2906422 28.9996614L51.2906422 31.1306533 50.701258 31.1306533 50.701258 29.0225051C50.701258 28.7831888 50.6783378 28.6042482 50.6324966 28.4856779 50.5866553 28.3671076 50.505343 28.2724703 50.388557 28.2017632 50.271771 28.1310561 50.1347951 28.0957031 49.9776252 28.0957031 49.72659 28.0957031 49.5099389 28.1751114 49.3276654 28.3339304 49.145392 28.4927494 49.0542567 28.7940658 49.0542567 29.2378887L49.0542567 31.1306533 48.4648725 31.1306533zM53.4811868 30.6052479L53.5663201 31.1241265C53.4004185 31.1589361 53.2519825 31.1763407 53.1210076 31.1763407 52.9070819 31.1763407 52.7411828 31.1426194 52.6233054 31.0751757 52.5054279 31.007732 52.4224784 30.9190775 52.3744543 30.8092096 52.3264301 30.6993417 52.3024184 30.4681874 52.3024184 30.1157398L52.3024184 28.1218102 51.8702034 28.1218102 51.8702034 27.664936 52.3024184 27.664936 52.3024184 26.8066652 52.8885283 26.4542193 52.8885283 27.664936 53.4811868 27.664936 53.4811868 28.1218102 52.8885283 28.1218102 52.8885283 30.1483737C52.8885283 30.3158951 52.898897 30.4235858 52.9196347 30.471449 52.9403723 30.5193123 52.974207 30.5573848 53.0211397 30.5856676 53.0680724 30.6139504 53.135196 30.6280916 53.2225126 30.6280916 53.2880001 30.6280916 53.374224 30.6204771 53.4811868 30.6052479zM54.0312787 32.4653787L53.9657916 31.9138662C54.0945836 31.9486758 54.207002 31.9660804 54.3030503 31.9660804 54.4340252 31.9660804 54.5388036 31.9443247 54.6173886 31.9008127 54.6959735 31.8573006 54.7603685 31.7963847 54.8105756 31.718063 54.8476852 31.6593217 54.9077144 31.5135585 54.9906652 31.2807691 55.0015798 31.248135 55.0190428 31.2002725 55.0430549 31.13718L53.7234892 27.664936 54.3587144 27.664936 55.0823472 29.6719192C55.1762126 29.9264646 55.2602535 30.1940597 55.3344727 30.4747124 55.402143 30.2049377 55.4829097 29.9416938 55.576775 29.6849727L56.320054 27.664936 56.9094382 27.664936 55.5865981 31.1893942C55.4447086 31.5701247 55.334473 31.8322808 55.2558881 31.9758706 55.1511082 32.1694992 55.0310496 32.3114551 54.8957089 32.4017426 54.7603681 32.4920301 54.5988348 32.5371732 54.4111041 32.5371732 54.2975925 32.5371732 54.1709853 32.5132419 54.0312787 32.4653787z"/>
    <use fill="#000" filter="url(#logo_general_rapid-ssl-a)" xlink:href="#logo_general_rapid-ssl-b"/>
    <use fill="#FFF" xlink:href="#logo_general_rapid-ssl-b"/>
  </g>
</svg>