<svg xmlns="http://www.w3.org/2000/svg" width="74" height="35" viewBox="0 0 74 35">
  <g fill="none" fill-rule="evenodd">
    <rect width="74" height="35" fill="#FFF" rx="17.5"/>
    <path fill="#FFF" d="M25.4890681,26.6325841 C23.9395654,27.5532825 22.2126835,28.0140747 20.2571143,28.0397727 C18.3519736,28.0140747 16.5995842,27.5532825 15.0500815,26.6325841 C13.4753646,25.6853017 12.2307782,24.4317105 11.3418298,22.8706291 C10.4021598,21.3095477 9.94507847,19.5697617 9.91957105,17.5992841 C9.94507847,15.6802026 10.4021598,13.9147186 11.3418298,12.3282345 C12.2307782,10.7671532 13.4753646,9.5132666 15.0500815,8.59197752 C16.5995842,7.67098382 18.3519736,7.18449356 20.2571143,7.15909091 C22.1874692,7.18449356 23.9395654,7.67098382 25.4890681,8.59197752 C26.2472489,9.03546909 26.9287933,9.55603288 27.5337667,10.1508352 L27.5337667,8.41268208 C27.5337667,8.19380577 27.7099731,8.01628261 27.9275192,8.01628261 L55.4092765,8.01628261 C58.337646,8.01273806 60.8672788,8.97626643 62.9404167,10.9104123 C64.9944973,12.8144294 66.0426472,15.1960754 66.0643432,17.9868222 C66.0426472,20.7217423 64.9927382,23.0765087 62.9407099,25.0044516 C60.8687448,26.9377113 58.3402847,27.9278238 55.4092765,27.9242793 L27.9275192,27.9242793 C27.7099731,27.9242793 27.5337667,27.7467561 27.5337667,27.5278798 L27.5337667,25.0514983 C26.9287933,25.6495951 26.2472489,26.1765798 25.4890681,26.6325841 Z"/>
    <path fill="#871E33" d="M28.3183841,8.13692033 L55.4003596,8.13692033 C58.3311798,8.13339302 60.8629296,9.09223283 62.9378024,11.0169671 C64.993602,12.9117192 66.042629,15.281776 66.0643432,18.058943 C66.042629,20.7805548 64.9918414,23.1238629 62.9380958,25.0424243 C60.8643968,26.9662768 58.3338207,27.9515714 55.4003596,27.9480441 L27.895604,27.9480441 C27.7777117,27.9480441 27.6719497,27.8962502 27.5997459,27.8141742 C27.2636489,28.0634023 26.9132162,28.2990273 26.5484478,28.5212316 C24.6672416,29.6417396 22.5574501,30.2019937 20.21878,30.2272727 C17.9053452,30.1761268 15.7955538,29.6164606 13.9143475,28.5212316 C12.05867,27.3754444 10.5841634,25.8728114 9.44035716,23.9883472 C8.32178622,22.104177 7.76279419,19.9907318 7.73726542,17.6732907 C7.76279419,15.3561434 8.32178622,13.2426982 9.44035716,11.3579401 C10.5841634,9.49934293 12.05867,7.99700379 13.9143475,6.87649571 C15.7955538,5.75598762 17.9053452,5.19602753 20.21878,5.17045455 C22.5574501,5.19602753 24.6672416,5.75598762 26.5484478,6.87649571 C27.181621,7.25369322 27.7715998,7.67415994 28.3183841,8.13692033 Z M29.169063,8.92615543 C29.8834503,9.65243297 30.5096538,10.4639764 31.0476735,11.3579401 C32.1662444,13.2426982 32.7252365,15.3561434 32.7510587,17.6732907 C32.7252365,19.9907318 32.1407157,22.104177 31.0476735,23.9883472 C30.3278237,25.2010831 29.4501124,26.255684 28.4145394,27.158809 L55.4003596,27.158809 C58.1604012,27.1555756 60.4600445,26.2567 62.4014048,24.4645338 C64.3145954,22.6635492 65.2468356,20.575677 65.2758856,18.058943 C65.2468356,15.4816568 64.3128348,13.3699753 62.402872,11.5969152 C60.4615117,9.8041611 58.1633355,8.92997668 55.4003596,8.92615543 L29.169063,8.92615543 Z M25.4551122,8.70981389 C23.9043128,7.79330177 22.1507504,7.30917879 20.21878,7.28389975 C18.312045,7.30917879 16.5581891,7.79330177 15.0073897,8.70981389 C13.4313549,9.62661995 12.185727,10.8744051 11.2960347,12.4278902 C10.3555782,14.0066543 9.89811442,15.7635475 9.87258565,17.6732907 C9.89811442,19.6341798 10.3555782,21.3655 11.2960347,22.9189851 C12.185727,24.4724702 13.4313549,25.7199614 15.0073897,26.6626343 C16.5581891,27.5788525 18.312045,28.0374025 20.21878,28.0629755 C22.1759857,28.0374025 23.9043128,27.5788525 25.4551122,26.6626343 C27.0314404,25.7199614 28.2767749,24.4724702 29.1917026,22.9189851 C30.1072171,21.3655 30.5646809,19.6089008 30.5902097,17.6732907 C30.5646809,15.7635475 30.1072171,14.0066543 29.1917026,12.4278902 C28.2767749,10.8744051 27.0314404,9.62661995 25.4551122,8.70981389 Z"/>
    <path fill="#871E33" d="M35.9088472,14.0007652 L36.7711458,14.0007652 L37.6840989,16.5136266 L38.6231114,14.0007652 L39.4599363,14.0007652 L38.0395592,17.5803106 L37.3546979,17.5803106 L35.9088472,14.0007652 Z M45.8265987,17.5548157 L45.8265987,14.838288 L46.6130619,14.838288 L46.6130619,17.5548157 L45.8265987,17.5548157 Z M45.801125,14.5338141 L45.801125,13.8480887 L46.6127691,13.8480887 L46.6127691,14.5338141 L45.801125,14.5338141 Z M43.3661929,14.838288 L44.1271824,14.838288 L44.1271824,15.371923 C44.2033106,15.1940447 44.3300934,15.0416612 44.4565834,14.9399746 C44.5836589,14.8130861 44.7610963,14.7623893 44.9897738,14.7875912 L44.9897738,15.6002051 L44.9643001,15.6002051 C44.684968,15.6002051 44.482057,15.6763968 44.355567,15.8287803 C44.2033106,15.9808707 44.1271824,16.2349407 44.1271824,16.5646164 L44.1271824,17.5548157 L43.3661929,17.5548157 L43.3661929,14.838288 Z M41.2100072,17.6313005 C41.0325698,17.6313005 40.829366,17.5803106 40.6519287,17.5041189 C40.4744913,17.4534221 40.3222349,17.3517355 40.1954521,17.224847 C40.0686693,17.0979585 39.9925411,16.9707769 39.9167057,16.7931916 C39.8402846,16.6156063 39.7896301,16.4128191 39.7896301,16.2091528 C39.7896301,16.0066586 39.814811,15.8287803 39.8909392,15.6506089 C39.9670674,15.4727305 40.0431956,15.3209332 40.1702712,15.1940447 C40.2967612,15.0668631 40.423544,14.9654695 40.6012741,14.8889848 C40.7790043,14.8130861 40.9561488,14.7875912 41.1593526,14.7875912 C41.3877373,14.7875912 41.5651746,14.838288 41.742612,14.9147727 C41.9203421,14.9906714 42.0471249,15.0926511 42.1487268,15.2444484 C42.2500359,15.371923 42.3258713,15.5237204 42.4022924,15.7015987 C42.4529469,15.879184 42.4787134,16.0822643 42.4787134,16.2601426 L42.4529469,16.3618293 L42.4529469,16.4632228 L40.5758005,16.4632228 C40.6012741,16.6411012 40.6771096,16.7679897 40.8041851,16.8696763 C40.9309679,16.945575 41.0577507,16.9965649 41.235188,16.9965649 C41.3622636,16.9965649 41.4635727,16.9707769 41.5903555,16.9200801 C41.6667765,16.8948782 41.7680856,16.8186865 41.8945756,16.7169999 L42.3258713,17.0979585 C42.1993813,17.2758368 42.0471249,17.4024323 41.8693948,17.478624 C41.6919574,17.5803106 41.4635727,17.6313005 41.2100072,17.6313005 Z M41.7174311,15.9808707 C41.6919574,15.8029923 41.6413029,15.6763968 41.5394082,15.5495083 C41.4383919,15.4478217 41.3113163,15.3971249 41.1593526,15.3971249 C40.9819153,15.3971249 40.8551325,15.4478217 40.7535306,15.5495083 C40.6519287,15.6763968 40.5758005,15.8029923 40.5509124,15.9808707 L41.7174311,15.9808707 Z M48.9973394,17.6055125 C48.7183002,17.6055125 48.4644418,17.5548157 48.1856954,17.4534221 C47.9321298,17.3772304 47.7037451,17.224847 47.4753605,17.0217667 L47.9570179,16.4887178 C48.1092744,16.6156063 48.2615308,16.7169999 48.439261,16.7931916 C48.6166983,16.8696763 48.7944284,16.9200801 48.9973394,16.9200801 C49.1747768,16.9200801 49.3015596,16.8948782 49.3776878,16.8186865 C49.453816,16.7679897 49.5044706,16.6915049 49.5044706,16.5904044 L49.5044706,16.4377279 L49.3776878,16.3363343 L49.1747768,16.2349407 L48.7944284,16.1074661 L48.3121854,15.9808707 L47.9321298,15.7777904 L47.7037451,15.4727305 C47.6527978,15.3461351 47.6273241,15.2192465 47.6273241,15.0416612 L47.6273241,15.0161663 L47.7037451,14.5845109 C47.7798734,14.4579155 47.8560016,14.331027 47.9824916,14.2545422 C48.0840935,14.1528556 48.2111691,14.0769569 48.3631327,14.025967 C48.5153892,13.9752703 48.6925337,13.9500684 48.8705567,13.9500684 C49.1241222,13.9500684 49.3525069,14.0007652 49.5805988,14.0769569 C49.8089835,14.1528556 50.0118945,14.2545422 50.1893318,14.4069256 L49.7838026,14.9906714 L49.3015596,14.7371874 C49.1495959,14.6607027 48.9973394,14.6355008 48.8453758,14.6355008 C48.6925337,14.6355008 48.5912246,14.6607027 48.5153892,14.7371874 C48.439261,14.7875912 48.3883136,14.8637829 48.3883136,14.9399746 L48.3883136,14.9654695 L48.439261,15.1175599 L48.5408629,15.2192465 L48.7944284,15.3209332 L49.1747768,15.4223268 L49.656727,15.6002051 C49.7838026,15.6506089 49.9102926,15.7273867 50.0118945,15.8029923 L50.2148055,16.0822643 C50.2654601,16.2091528 50.2909337,16.3363343 50.2909337,16.4887178 L50.2909337,16.5136266 C50.2909337,16.6915049 50.2654601,16.8438884 50.1893318,16.9707769 C50.1386773,17.0979585 50.0628419,17.224847 49.9357663,17.3262406 C49.8089835,17.4024323 49.6822007,17.478624 49.5044706,17.5293208 C49.3525069,17.5803106 49.1747768,17.6055125 48.9973394,17.6055125 Z M51.2800151,17.5548157 L51.2800151,14.838288 L52.0664783,14.838288 L52.0664783,17.5548157 L51.2800151,17.5548157 Z M51.2545414,14.5338141 L51.2545414,13.8480887 L52.0661855,13.8480887 L52.0661855,14.5338141 L51.2545414,14.5338141 Z M56.9618162,14.838288 L57.7230985,14.838288 L57.7230985,15.2192465 L57.8750622,15.0668631 L58.0524995,14.9147727 L58.2554105,14.8130861 L58.5095617,14.7875912 C58.8137818,14.7875912 59.0418737,14.8889848 59.1941302,15.0668631 C59.3718603,15.2444484 59.4479885,15.4727305 59.4479885,15.8029923 L59.4479885,17.5548157 L58.6615254,17.5548157 L58.6615254,16.0318605 C58.6615254,15.8539822 58.6360517,15.7273867 58.5602163,15.625407 C58.4837952,15.5495083 58.3573053,15.4985185 58.204756,15.4985185 C58.0524995,15.4985185 57.9260096,15.5495083 57.8495885,15.625407 C57.7734603,15.7273867 57.7230985,15.8539822 57.7230985,16.0318605 L57.7230985,17.5548157 L56.9618162,17.5548157 L56.9618162,14.838288 Z M54.4507559,18.3674297 L53.8165492,18.2909449 C53.5884573,18.265743 53.4107271,18.1892583 53.2332898,18.0878647 L53.5123291,17.5041189 L53.9436248,17.7069061 L54.4252822,17.7578959 C54.6788478,17.7578959 54.8820516,17.7069061 55.0088344,17.5803106 C55.1356171,17.4534221 55.1865645,17.2758368 55.1865645,17.0217667 L55.1865645,16.8948782 C55.0849626,17.0217667 54.957887,17.1483622 54.8311042,17.224847 C54.7043214,17.3010387 54.5268841,17.3262406 54.2987922,17.3262406 C54.146243,17.3262406 53.9942793,17.3010387 53.8420228,17.2503419 C53.7152401,17.199352 53.5884573,17.1231603 53.4613817,16.9965649 C53.3600726,16.8948782 53.2842372,16.7679897 53.2078161,16.6156063 C53.1316879,16.4377279 53.1062142,16.2601426 53.1062142,16.0570624 C53.1062142,15.8539822 53.1316879,15.6763968 53.2078161,15.5237204 C53.2842372,15.3461351 53.3600726,15.2192465 53.4613817,15.1175599 C53.5884573,14.9906714 53.7152401,14.9147727 53.8674965,14.8637829 L54.2987922,14.7875912 C54.5268841,14.7875912 54.7043214,14.838288 54.8311042,14.9147727 C54.957887,14.9906714 55.0849626,15.0668631 55.1865645,15.1940447 L55.1865645,14.838288 L55.947554,14.838288 L55.947554,16.945575 C55.947554,17.4276341 55.8456593,17.7830978 55.6178602,18.0113799 C55.4907846,18.1388545 55.3130545,18.2402481 55.1356171,18.2909449 L54.4507559,18.3674297 Z M54.5268841,16.6915049 L54.8059234,16.6411012 C54.8820516,16.6156063 54.9329989,16.5904044 55.0088344,16.5136266 C55.0594889,16.4632228 55.1101435,16.3870311 55.1356171,16.3111325 C55.1610908,16.2349407 55.1865645,16.158456 55.1865645,16.0570624 L55.1356171,15.8029923 C55.1101435,15.7273867 55.0594889,15.6506089 55.0088344,15.6002051 L54.8059234,15.4727305 L54.5268841,15.4223268 L54.2733185,15.4727305 L54.0704075,15.6002051 C53.9942793,15.6506089 53.9436248,15.7273867 53.9184439,15.8029923 L53.8674965,16.0570624 C53.8674965,16.2601426 53.9436248,16.4128191 54.0704075,16.5136266 C54.1968975,16.6411012 54.3494468,16.6915049 54.5268841,16.6915049 Z M37.8870099,22.0480757 C37.6082635,22.0480757 37.3546979,21.9973789 37.0753659,21.8959853 C36.8218003,21.8197936 36.5937084,21.6674101 36.3653238,21.4643299 L36.847274,20.9312809 C36.9995305,21.0581694 37.1514941,21.1598561 37.3292243,21.2360478 C37.5066616,21.3122395 37.6840989,21.3626433 37.8870099,21.3626433 C38.0647401,21.3626433 38.1915229,21.3374414 38.2679439,21.2612497 C38.3437793,21.2105529 38.3944339,21.1343612 38.3944339,21.0329676 L38.3944339,20.8805841 L38.2679439,20.7788975 L38.0647401,20.6775039 L37.6840989,20.5503223 L37.2024415,20.4234338 L36.8218003,20.2206467 L36.5937084,19.9158798 C36.5427611,19.7886982 36.5175802,19.6618097 36.5175802,19.4842244 L36.5175802,19.4587295 L36.5937084,19.0270741 C36.6695439,18.9004786 36.7456721,18.7735901 36.8727477,18.6971054 C36.9740568,18.5957118 37.1008396,18.5195201 37.2528032,18.4685302 C37.4053525,18.4178334 37.5827898,18.3926315 37.7602272,18.3926315 C38.0137927,18.3926315 38.2421774,18.4433283 38.4705621,18.5195201 C38.6989468,18.5957118 38.9021506,18.6971054 39.0792951,18.8497818 L38.6734731,19.4335276 L38.1915229,19.1797506 C38.0395592,19.1032658 37.8870099,19.0780639 37.7347535,19.0780639 C37.5827898,19.0780639 37.4811879,19.1032658 37.4053525,19.1797506 C37.3292243,19.2301543 37.2782769,19.3063461 37.2782769,19.3825378 L37.2782769,19.4083257 L37.3292243,19.5604161 L37.4305334,19.6618097 L37.6840989,19.7634964 L38.0647401,19.8648899 L38.5466903,20.0427683 C38.6734731,20.0931721 38.8002559,20.1699499 38.9021506,20.2455555 L39.1047688,20.5251205 C39.1554234,20.652009 39.1806042,20.7788975 39.1806042,20.9312809 L39.1806042,20.9564828 C39.1806042,21.1343612 39.1554234,21.2864515 39.0792951,21.4136331 C39.0283478,21.5405216 38.9525124,21.6674101 38.8257296,21.7688037 C38.6989468,21.8452885 38.572164,21.9211872 38.3944339,21.971884 C38.2421774,22.0228738 38.0647401,22.0480757 37.8870099,22.0480757 Z M45.0653164,22.0738636 C44.8626982,22.0738636 44.684968,22.0228738 44.5075307,21.9469751 C44.3300934,21.8701973 44.1778369,21.7688037 44.0510541,21.6419152 C43.9242713,21.5153197 43.8481431,21.3881382 43.7720149,21.2105529 C43.6958867,21.0329676 43.6452321,20.8295943 43.6452321,20.652009 C43.6452321,20.4492218 43.6958867,20.2713434 43.7720149,20.0931721 C43.8481431,19.9158798 43.9242713,19.7634964 44.0510541,19.6366078 C44.1778369,19.5094263 44.3300934,19.4083257 44.5075307,19.3315479 C44.684968,19.2559423 44.8626982,19.2301543 45.0907901,19.2301543 C45.3446484,19.2301543 45.5475594,19.2811442 45.7249968,19.3573359 C45.9024341,19.4335276 46.0292169,19.5352142 46.1562925,19.6870116 L45.6995231,20.1951517 C45.6236877,20.0931721 45.5220858,20.0172734 45.4207767,19.9662835 C45.3446484,19.9158798 45.2178656,19.8906779 45.0653164,19.8906779 L44.8117508,19.9413747 L44.6091326,20.11896 L44.4565834,20.3472421 L44.4059288,20.6265141 L44.4059288,20.652009 C44.4059288,20.7536956 44.4314025,20.8553823 44.4565834,20.9312809 C44.482057,21.0329676 44.5327116,21.1088662 44.6091326,21.185058 C44.6597872,21.2612497 44.7356226,21.3122395 44.8117508,21.3374414 C44.8878791,21.3626433 44.9897738,21.3881382 45.1159709,21.3881382 C45.2433393,21.3881382 45.3446484,21.3626433 45.4459575,21.3122395 L45.7249968,21.1088662 L46.1814734,21.5657235 C46.0546906,21.6929051 45.9024341,21.8197936 45.7249968,21.9211872 C45.5475594,22.0228738 45.3446484,22.0738636 45.0653164,22.0738636 Z M41.5145201,22.0738636 C41.3367899,22.0738636 41.1341717,22.0228738 40.9561488,21.9469751 C40.7790043,21.8959853 40.626455,21.7945917 40.499965,21.6674101 C40.3728894,21.5405216 40.2967612,21.4136331 40.220633,21.2360478 C40.1447976,21.0581694 40.0938502,20.8553823 40.0938502,20.652009 C40.0938502,20.4492218 40.1193239,20.2713434 40.1954521,20.0931721 C40.2715803,19.9158798 40.3477086,19.7634964 40.4744913,19.6366078 C40.6012741,19.5094263 40.7280569,19.4083257 40.9054942,19.3315479 C41.0832244,19.2559423 41.2603689,19.2301543 41.4635727,19.2301543 C41.6919574,19.2301543 41.8693948,19.2811442 42.0471249,19.3573359 C42.2245622,19.4335276 42.3516378,19.5352142 42.4529469,19.6870116 C42.554256,19.8144862 42.630677,19.9662835 42.7068053,20.1441619 C42.757167,20.3217472 42.7829335,20.5251205 42.7829335,20.7027058 L42.757167,20.8043924 L42.757167,20.905786 L40.8803134,20.905786 C40.9054942,21.0836644 40.9819153,21.2105529 41.1084053,21.3122395 C41.235188,21.3881382 41.3622636,21.439128 41.5394082,21.439128 C41.6667765,21.439128 41.7680856,21.4136331 41.8945756,21.3626433 C41.9709967,21.3374414 42.0725986,21.2612497 42.1993813,21.1598561 L42.630677,21.5405216 C42.5036015,21.7184 42.3516378,21.8452885 42.1736149,21.9211872 C41.9964703,22.0228738 41.7680856,22.0738636 41.5145201,22.0738636 Z M42.0216512,20.4234338 C41.9964703,20.2455555 41.945523,20.11896 41.8442139,19.9920715 C41.742612,19.8906779 41.6158292,19.8396881 41.4635727,19.8396881 C41.2861354,19.8396881 41.1593526,19.8906779 41.0577507,19.9920715 C40.9561488,20.11896 40.8803134,20.2455555 40.8551325,20.4234338 L42.0216512,20.4234338 Z M48.0331461,22.0480757 C47.7543997,22.0480757 47.526015,21.9469751 47.3485777,21.7688037 C47.1963212,21.5909254 47.120193,21.3626433 47.120193,21.0329676 L47.120193,19.2811442 L47.8811825,19.2811442 L47.8811825,20.8043924 C47.8811825,20.9819777 47.9321298,21.1088662 48.0079653,21.2105529 C48.0840935,21.2864515 48.2111691,21.3374414 48.3631327,21.3374414 C48.4899155,21.3374414 48.6166983,21.2864515 48.7183002,21.2105529 C48.7944284,21.1088662 48.8453758,20.9819777 48.8453758,20.8043924 L48.8453758,19.2811442 L49.6057797,19.2811442 L49.6057797,21.9973789 L48.8453758,21.9973789 L48.8453758,21.6167133 L48.6925337,21.7688037 L48.5153892,21.9211872 L48.3121854,22.0228738 L48.0331461,22.0480757 Z M58.0524995,22.0480757 C57.8750622,22.0480757 57.7230985,22.0228738 57.5705493,21.9469751 C57.4440593,21.8959853 57.3169837,21.8197936 57.1902009,21.6929051 C57.0634182,21.5657235 56.9872899,21.4136331 56.9111617,21.2360478 C56.8350335,21.0581694 56.8098526,20.8805841 56.8098526,20.652009 L56.8098526,20.6265141 C56.8098526,20.398232 56.8350335,20.1951517 56.9111617,20.0172734 C56.9872899,19.8396881 57.0634182,19.7127996 57.1902009,19.5862041 C57.2918028,19.4587295 57.4185856,19.3825378 57.5705493,19.3315479 C57.7230985,19.2559423 57.8750622,19.2301543 58.0524995,19.2301543 C58.2554105,19.2301543 58.4331407,19.2811442 58.5602163,19.3573359 C58.6867062,19.4335276 58.8137818,19.5094263 58.8896173,19.6366078 L58.8896173,18.2909449 L59.6506068,18.2909449 L59.6506068,21.9973789 L58.8896173,21.9973789 L58.8896173,21.6167133 C58.8137818,21.7436018 58.6867062,21.8452885 58.5602163,21.9211872 C58.4331407,21.9973789 58.2554105,22.0480757 58.0524995,22.0480757 Z M58.2302297,21.3881382 C58.3318316,21.3881382 58.4331407,21.3626433 58.5095617,21.3374414 L58.7121799,21.185058 C58.7628345,21.1088662 58.8137818,21.0329676 58.8389627,20.9564828 L58.8896173,20.652009 L58.8896173,20.6265141 L58.8389627,20.3217472 L58.7121799,20.0931721 L58.5095617,19.9413747 C58.4331407,19.9158798 58.3318316,19.8906779 58.2302297,19.8906779 L57.9763713,19.9413747 L57.7734603,20.0931721 L57.6212038,20.3217472 C57.596023,20.398232 57.5705493,20.4996256 57.5705493,20.6265141 L57.5705493,20.652009 L57.6212038,20.9564828 C57.6469703,21.0329676 57.6976249,21.1088662 57.7734603,21.185058 L57.9763713,21.3374414 L58.2302297,21.3881382 Z M54.6539597,22.0738636 C54.4759368,22.0738636 54.2733185,22.0228738 54.0955884,21.9469751 C53.9184439,21.8959853 53.7656018,21.7945917 53.6394046,21.6674101 C53.5123291,21.5405216 53.4362008,21.4136331 53.3600726,21.2360478 C53.2842372,21.0581694 53.2332898,20.8553823 53.2332898,20.652009 C53.2332898,20.4492218 53.2584707,20.2713434 53.3345989,20.0931721 C53.4107271,19.9158798 53.4868554,19.7634964 53.6136382,19.6366078 C53.7404209,19.5094263 53.8674965,19.4083257 54.0446411,19.3315479 C54.222664,19.2559423 54.3998085,19.2301543 54.6030123,19.2301543 C54.8311042,19.2301543 55.0088344,19.2811442 55.1865645,19.3573359 C55.3640018,19.4335276 55.4907846,19.5352142 55.5923865,19.6870116 C55.6934028,19.8144862 55.7698239,19.9662835 55.8456593,20.1441619 C55.8966066,20.3217472 55.9220803,20.5251205 55.9220803,20.7027058 L55.8966066,20.8043924 L55.8966066,20.905786 L54.0194602,20.905786 C54.0446411,21.0836644 54.1210621,21.2105529 54.2478449,21.3122395 C54.3746277,21.3881382 54.5017032,21.439128 54.6788478,21.439128 C54.8059234,21.439128 54.9075253,21.4136331 55.0340152,21.3626433 C55.1101435,21.3374414 55.2117454,21.2612497 55.3385282,21.1598561 L55.7698239,21.5405216 C55.6427483,21.7184 55.4907846,21.8452885 55.3130545,21.9211872 C55.1356171,22.0228738 54.9075253,22.0738636 54.6539597,22.0738636 Z M55.1610908,20.4234338 C55.1356171,20.2455555 55.0849626,20.11896 54.9836535,19.9920715 C54.8820516,19.8906779 54.7552688,19.8396881 54.6030123,19.8396881 C54.4252822,19.8396881 54.2987922,19.8906779 54.1968975,19.9920715 C54.0955884,20.11896 54.0194602,20.2455555 53.9942793,20.4234338 L55.1610908,20.4234338 Z M50.8235385,19.2811442 L51.584528,19.2811442 L51.584528,19.8144862 C51.6606563,19.6366078 51.7874391,19.4842244 51.9142218,19.3825378 C52.0410046,19.2559423 52.2187348,19.2049525 52.4468266,19.2301543 L52.4468266,20.0427683 L52.4216458,20.0427683 C52.1426065,20.0427683 51.9396955,20.11896 51.8126199,20.2713434 C51.6606563,20.4234338 51.584528,20.6775039 51.584528,21.0071796 L51.584528,21.9973789 L50.8235385,21.9973789 L50.8235385,19.2811442 Z M60.9696747,7.75568182 L62.0600652,7.75568182 L62.0600652,8.00945884 L61.6800097,8.00945884 L61.6800097,9.05006187 L61.3754968,9.05006187 L61.3754968,8.00945884 L60.9696747,8.00945884 L60.9696747,7.75568182 Z M63.6836461,7.75568182 L63.6836461,9.05006187 L63.379426,9.05006187 L63.379426,8.21283212 L63.0494394,8.77078992 L62.9990776,8.77078992 L62.6693839,8.21283212 L62.6693839,9.05006187 L62.3648709,9.05006187 L62.3648709,7.75568182 L62.6942719,7.75568182 L63.0494394,8.31422571 L63.379426,7.75568182 L63.6836461,7.75568182 Z"/>
    <path fill="#000" d="M29.0986353,6.57842616 L30.9782494,6.57842616 L30.9782494,3.60253733 L32.8323523,3.60253733 L32.8323523,4.6198474 L30.9782494,4.6198474 L30.0381491,4.6198474 L30.0381491,7.54465052 L29.098342,7.54465052 L29.098342,8.48621282 L30.0381491,8.48621282 L30.0381491,7.54465052 L30.9782494,7.54465052 L30.9782494,6.57842616 L31.9177632,6.57842616 L31.9177632,5.6119082 L33.0103438,5.6119082 L33.0103438,6.57842616 L31.9177632,6.57842616 L31.9177632,7.54465052 L30.9782494,7.54465052 L30.9782494,9.55431499 L30.1651183,9.55431499 L30.1651183,10.3426202 L29.3270626,10.3426202 L29.3270626,11.5126002 L28.5646607,11.5126002 L28.5646607,12.4794117 L27.5996357,12.4794117 L27.5996357,13.5472203 L26.6595354,13.5472203 L26.6595354,14.691951 L25.8466976,14.691951 L25.8466976,15.6329261 L25.0848821,15.6329261 L25.0848821,16.7265711 C23.7638741,18.6340642 22.6205644,20.8724399 21.6297351,23.4919032 C21.4265256,24.0514972 20.9693777,24.3060449 20.2835091,24.2549592 C19.5469115,24.1789178 19.0894703,23.8991209 18.8862609,23.3906126 C17.540035,20.2112618 16.0665465,17.7183383 14.4663821,15.9638088 C13.9327007,15.4036276 13.7805135,14.9206623 13.9582119,14.5389875 C14.1359102,14.1576063 14.4408709,14.0560221 14.872801,14.1831492 C16.4474543,14.691951 18.1496633,16.2177693 19.9785483,18.7870277 C20.7913861,16.675779 21.9091847,14.5900732 23.3319441,12.4794117 L24.0433238,12.4794117 L24.0433238,11.5126002 L24.67817,11.5126002 L24.67817,10.5716251 L25.6434882,10.5716251 L25.6434882,9.07105601 L26.6595354,9.07105601 L26.6595354,8.20612226 L27.4978844,8.20612226 L27.4978844,7.54465052 L29.098342,7.54465052 L29.098342,6.57842616 L28.1330239,6.57842616 L28.1330239,5.63715746 L29.0986353,5.63715746 L29.0986353,6.57842616 Z M26.6595354,10.0117375 L27.5996357,10.0117375 L27.5996357,9.07105601 L26.6595354,9.07105601 L26.6595354,10.0117375 Z M32.9085925,3.60253733 L32.9085925,2.58522727 L33.924933,2.58522727 L33.924933,3.60253733 L32.9085925,3.60253733 Z"/>
    <path fill="#8E2242" d="M30.9490617,5.56818182 L30.9490617,4.59255898 L31.8958794,4.59255898 L31.8958794,5.56818182 L30.9490617,5.56818182 Z M33.8929439,4.59255898 L33.8929439,3.59210526 L34.9168901,3.59210526 L34.9168901,4.59255898 L33.8929439,4.59255898 Z M33.8929439,2.59165154 L33.8929439,1.59090909 L34.9168901,1.59090909 L34.9168901,2.59165154 L33.8929439,2.59165154 Z"/>
  </g>
</svg>