<svg xmlns="http://www.w3.org/2000/svg" width="54" height="35" viewBox="0 0 54 35">
  <path fill="#FFF" fill-rule="evenodd" d="M163.329073,117.639344 L163.329073,113.976611 C164.162665,113.976611 164.996256,114.19734 165.829847,114.461657 C165.215331,115.653097 164.294171,116.800638 163.329073,117.639344 Z M162.715172,117.595755 C161.705829,116.800947 160.784669,115.653406 160.17046,114.461657 C161.004051,114.152514 161.837643,113.976611 162.715172,113.976611 L162.715172,117.595755 Z M163.329073,101.35366 C164.294171,102.147541 165.215331,103.295082 165.829847,104.48714 C164.996256,104.795974 164.162665,104.972804 163.329073,104.972804 L163.329073,101.35366 Z M162.715172,101.35366 L162.715172,104.972804 C161.837643,104.972804 161.004051,104.752076 160.17046,104.48714 C160.784669,103.295082 161.705829,102.147541 162.715172,101.35366 Z M163.329073,113.358633 L163.329073,109.783388 L167.057651,109.783388 C167.057651,111.195865 166.707069,112.608032 166.092553,113.888196 C165.259576,113.579052 164.250233,113.358633 163.329073,113.358633 Z M171.444375,109.783078 C171.356192,111.945847 170.435646,114.0202 168.943294,115.564991 C168.241516,114.99122 167.495801,114.505865 166.707069,114.152514 C167.320356,112.740346 167.627615,111.327869 167.672167,109.783078 L171.444375,109.783078 Z M168.461206,115.961931 C167.145219,117.109472 165.566834,117.72745 163.855407,117.94787 C164.908687,117.021057 165.741664,115.961931 166.399811,114.682077 C167.145219,114.990911 167.891242,115.476576 168.461206,115.961931 Z M162.715172,113.358633 C161.750074,113.358633 160.784669,113.579052 159.907754,113.888196 C159.293853,112.65224 158.986594,111.195865 158.942349,109.783388 L162.715172,109.783388 L162.715172,113.358633 Z M154.555932,109.783078 L158.32814,109.783078 C158.372078,111.327869 158.722967,112.696138 159.337176,114.152514 C158.503892,114.505865 157.758176,114.99122 157.056092,115.564991 C155.564661,114.0202 154.643501,111.990054 154.555932,109.783078 Z M157.539101,115.961931 C158.153003,115.476576 158.854781,114.947013 159.600496,114.682077 C160.258643,115.961931 161.091927,117.021057 162.144593,117.94787 C160.434087,117.72745 158.854781,117.109472 157.539101,115.961931 Z M163.329073,105.590782 C164.250233,105.546266 165.215331,105.370054 166.092553,105.016393 C166.707069,106.340455 167.057651,107.708725 167.057651,109.1651 L163.329073,109.1651 L163.329073,105.590782 Z M171.444375,109.1651 L167.672167,109.1651 C167.627615,107.62031 167.27734,106.208451 166.707069,104.795665 C167.495801,104.442623 168.241516,103.956958 168.943294,103.383497 C170.523215,105.016393 171.356192,107.002641 171.444375,109.1651 Z M168.461206,102.94204 C167.847304,103.471603 167.145219,103.956958 166.399811,104.266102 C165.741664,102.985938 164.908687,101.97102 163.855407,101 C165.566834,101.176521 167.145219,101.838707 168.461206,102.94204 Z M162.715172,105.590782 L162.715172,109.1651 L158.942349,109.1651 C158.986594,107.753242 159.293853,106.340455 159.907754,105.016393 C160.784669,105.370054 161.750074,105.546266 162.715172,105.590782 Z M154.555932,109.1651 C154.643501,106.958433 155.52103,104.928288 157.056092,103.383497 C157.758176,103.956958 158.503892,104.442623 159.337176,104.795665 C158.722967,106.208451 158.372078,107.576411 158.32814,109.1651 L154.555932,109.1651 Z M157.539101,102.94204 C158.854781,101.838707 160.434087,101.176521 162.144593,101 C161.136172,101.926812 160.215012,102.985938 159.600496,104.266102 C158.854781,103.956958 158.153003,103.471603 157.539101,102.94204 Z M136,112.298889 L152.845119,112.298889 C153.459021,115.432987 155.608599,118.036903 159.90714,119.84632 C159.424745,121.346903 157.758176,122.714864 156.047056,122.714864 L146.879395,122.714864 C145.475226,122.714864 144.378622,121.523733 143.940164,120.552095 L153.239946,120.552095 C153.80991,120.463989 153.80991,120.022532 153.283884,119.934426 L144.115301,119.934426 C142.931129,119.934426 141.878155,118.919199 141.264253,117.815865 L151.880021,117.815865 C152.449985,117.72745 152.449985,117.286302 151.880021,117.198196 L141.176378,117.198196 C140.080081,117.198196 139.114983,115.917724 138.720156,115.079017 L150.476466,115.079017 C151.04643,114.990911 151.04643,114.461348 150.476466,114.416832 L138.500467,114.416832 C137.535369,114.417141 136.658147,113.402222 136,112.298889 Z M190,112.298889 C189.341546,113.402222 188.464938,114.417141 187.499226,114.416832 L175.523534,114.416832 C174.953263,114.461348 174.953263,114.990911 175.523534,115.079017 L187.280151,115.079017 C186.885324,115.917724 185.920534,117.198196 184.823315,117.198196 L174.120286,117.198196 C173.549708,117.286302 173.549708,117.72745 174.120286,117.815865 L184.735747,117.815865 C184.121845,118.919199 183.068564,119.934426 181.884699,119.934426 L172.716116,119.934426 C172.190398,120.022532 172.190398,120.463989 172.760054,120.552095 L182.06045,120.552095 C181.621686,121.523733 180.524774,122.714864 179.121219,122.714864 L169.953251,122.714864 C168.242131,122.714864 166.575255,121.346903 166.093167,119.84632 C170.391709,118.036903 172.540979,115.432987 173.154881,112.298889 L190,112.298889 Z M171.006225,136 L176.40137,124.877632 L179.95481,124.877632 L182.191342,136 L178.813346,136 L178.682454,134.676556 L175.129629,134.676556 L174.55905,136 L171.006225,136 Z M176.006543,132.381165 L178.287628,132.381165 L177.717357,128.276666 L176.006543,132.381165 Z M163.942975,136 L165.215331,127.658379 L162.057332,127.658379 L162.583665,124.834043 L172.233721,124.834043 L171.708002,127.658379 L168.724833,127.658379 L167.496415,136 L163.942975,136 Z M149.467123,136 L154.906821,124.877632 L158.459647,124.877632 L160.653162,136 L157.36335,136 L157.14366,134.676556 L153.634773,134.676556 L153.064501,136 L149.467123,136 Z M154.511687,132.381165 L156.793079,132.381165 L156.17887,128.276666 L154.511687,132.381165 Z M143.676537,136 L145.870053,124.877632 L149.467123,124.877632 L147.273608,136 L143.676537,136 Z" transform="translate(-136 -101)"/>
</svg>