<svg stroke-width="0" fill="none" height="24" stroke="currentColor" stroke-linecap="round" viewBox="0 0 24 24" width="24" xmlns="http://www.w3.org/2000/svg" xmlns:xlink="http://www.w3.org/1999/xlink"><path fill="#fff" d="M24,5.24619616 C23.1381518,5.63362472 22.2244738,5.88871437 21.2888889,6.00311095 C22.2743441,5.40355599 23.011565,4.45990053 23.362963,3.34826055 C22.4368334,3.90715977 21.4234284,4.30071681 20.3666667,4.51187583 C18.9039309,2.93095261 16.5800458,2.54420482 14.697916,3.56846568 C12.8157862,4.59272653 11.8433969,6.77331701 12.3259259,8.88767181 C8.4037037,8.68808731 4.92962963,6.77885447 2.6,3.87546489 C1.35009518,6.06882613 1.99033783,8.8721064 4.06296296,10.2809976 C3.31387525,10.2573637 2.58118508,10.0520791 1.92592593,9.68224406 L1.92592593,9.74249598 C1.92403325,12.02712 3.50820818,13.9955926 5.71111111,14.4459118 C5.30589257,14.5601073 4.88715867,14.6171271 4.46666667,14.6153703 C4.16833737,14.6152689 3.87069617,14.5862671 3.57777778,14.5287582 C4.19372273,16.4838865 5.96631993,17.8227307 7.98518519,17.857677 C6.31435628,19.1921316 4.25059961,19.916333 2.12592593,19.9137739 C1.74962306,19.914049 1.3736416,19.8914141 1,19.8459905 C3.15819874,21.2541055 5.66899891,22.0017939 8.23333333,21.9999968 C16.9148148,21.9999968 21.6592593,14.6906852 21.6592593,8.34917024 C21.6592593,8.14205425 21.6555556,7.93117252 21.6444444,7.72782228 C22.5702475,7.05164173 23.3682544,6.2109251 24,5.24619616"></path></svg>