<svg color="green" viewBox="0 0 16 16" fill="none" height="24" stroke="currentColor" stroke-linecap="round" width="24" xmlns="http://www.w3.org/2000/svg" xmlns:xlink="http://www.w3.org/1999/xlink"><g transform="translate(0.466675, 2.000000)"><path d="M9.11750145,10.3394899 C9.11750145,11.2322435 8.39373333,11.9566493 7.50034203,11.9566493 C6.60758841,11.9566493 5.88318261,11.2322435 5.88318261,10.3394899 C5.88318261,9.44673623 6.60758841,8.72233043 7.50034203,8.72233043 C8.39373333,8.72233043 9.11750145,9.44673623 9.11750145,10.3394899 L9.11750145,10.3394899 Z"></path><path d="M3.73923478,8.0430087 C4.47065507,6.71918261 5.88056812,5.8226029 7.50027826,5.8226029 C9.11998841,5.8226029 10.5305391,6.71982029 11.2619594,8.04428406"></path><path d="M0.47826087,3.53473043 C2.22997101,1.6542087 4.72776812,0.478324638 7.49976812,0.478324638 C10.2717681,0.478324638 12.7689275,1.65357101 14.52,3.53281739"></path><path d="M2.12169275,5.8285971 C3.38175072,4.24969855 5.32285217,3.23833623 7.49989565,3.23833623 C9.65525797,3.23833623 11.579142,4.22929275 12.8404754,5.78077101"></path></g></svg>