<svg stroke-width="0" width="16" height="16" viewBox="0 0 16 16" fill="#1ED491" stroke="currentColor" stroke-linecap="round" xmlns="http://www.w3.org/2000/svg" xmlns:xlink="http://www.w3.org/1999/xlink"><path fill-rule="evenodd" d="M0,7 L0,4.99201702 C0,3.8918564 0.894513756,3 1.99406028,3 L14.0059397,3 C15.1072288,3 16,3.90017617 16,4.99201702 L16,7 L15.5,7 C14.6657972,7 14,7.6719457 14,8.50083274 L14,9.49916726 C14,10.3214545 14.6715729,11 15.5,11 L16,11 L16,12.007983 C16,13.1081436 15.1054862,14 14.0059397,14 L1.99406028,14 C0.892771196,14 0,13.0998238 0,12.007983 L0,11 L0.5,11 C1.33420277,11 2,10.3280543 2,9.49916726 L2,8.50083274 C2,7.67854548 1.32842712,7 0.5,7 L-5.55111512e-17,7 Z M10,3 L12,3 L12,14 L10,14 L10,3 Z M3,7 C3,7.55613518 3.44762906,8 3.99980749,8 L7.00019251,8 C7.55628335,8 8,7.55228475 8,7 C8,6.44386482 7.55237094,6 7.00019251,6 L3.99980749,6 C3.44371665,6 3,6.44771525 3,7 Z M3,10 C3,10.5561352 3.44762906,11 3.99980749,11 L7.00019251,11 C7.55628335,11 8,10.5522847 8,10 C8,9.44386482 7.55237094,9 7.00019251,9 L3.99980749,9 C3.44371665,9 3,9.44771525 3,10 Z"></path></svg>