<svg stroke-width="0" fill="#0770CD" height="24" stroke="currentColor" stroke-linecap="round" viewBox="0 0 24 24" width="24" xmlns="http://www.w3.org/2000/svg" xmlns:xlink="http://www.w3.org/1999/xlink"><g><path d="M5.63508496,13.5267215 L5.62216676,13.1151519 C5.61594701,12.9169929 5.4153278,12.5699888 5.24725733,12.4657897 L4.89028143,12.2444743 C4.05046736,11.7238124 3.75442535,10.6143301 4.22056595,9.74506211 L4.41905846,9.37490943 C4.51275147,9.2001889 4.51251219,8.7993649 4.41905846,8.62509057 L4.22056595,8.25493789 C3.7535966,7.3841244 4.05195781,6.27526358 4.89028143,5.75552569 L5.24725733,5.53421032 C5.41575812,5.4297444 5.6159629,5.082501 5.62216676,4.88484814 L5.63534354,4.46504026 C5.66634297,3.47740898 6.47916177,2.66628795 7.46504026,2.63534354 L7.88484814,2.62216676 C8.08300706,2.61594701 8.43001119,2.4153278 8.53421032,2.24725733 L8.75552569,1.89028143 C9.27618762,1.05046736 10.3856699,0.754425348 11.2549379,1.22056595 L11.6250906,1.41905846 C11.7998111,1.51275147 12.2006351,1.51251219 12.3749094,1.41905846 L12.7450621,1.22056595 C13.6158756,0.7535966 14.7247364,1.05195781 15.2444743,1.89028143 L15.4657897,2.24725733 C15.5702556,2.41575812 15.917499,2.6159629 16.1151519,2.62216676 L16.5349597,2.63534354 C17.522591,2.66634297 18.333712,3.47916177 18.3646565,4.46504026 L18.3778332,4.88484814 C18.384053,5.08300706 18.5846722,5.43001119 18.7527427,5.53421032 L19.1097186,5.75552569 C19.9495326,6.27618762 20.2455747,7.38566986 19.779434,8.25493789 L19.5809415,8.62509057 C19.4872485,8.7998111 19.4874878,9.2006351 19.5809415,9.37490943 L19.779434,9.74506211 C20.2464034,10.6158756 19.9480422,11.7247364 19.1097186,12.2444743 L18.7527427,12.4657897 C18.5842419,12.5702556 18.3840371,12.917499 18.3778332,13.1151519 L18.364915,13.5267215 L21.8589022,19.5202183 C22.3882237,20.428203 21.3207464,21.423849 20.4372961,20.8461634 L18.3675854,19.4927856 L18.5161839,21.944639 C18.5796128,22.9912059 17.1752369,23.4089447 16.6459154,22.50096 L13.4332127,16.9899714 C13.1974278,16.9656723 12.9636502,16.8966508 12.7450621,16.779434 L12.3749094,16.5809415 C12.2001889,16.4872485 11.7993649,16.4874878 11.6250906,16.5809415 L11.2549379,16.779434 C11.0361928,16.896735 10.8024269,16.965744 10.5667514,16.990033 L7.35408463,22.50096 C6.82476307,23.4089447 5.42038719,22.9912059 5.48381607,21.944639 L5.63241461,19.4927856 L3.56270392,20.8461634 C2.67925361,21.423849 1.61177628,20.428203 2.14109784,19.5202183 L5.63508496,13.5267215 Z M6.93570887,15.2699866 L6.00365604,16.8688063 L6.20129583,16.7395702 C6.89119939,16.2884443 7.80504105,16.8109712 7.7555082,17.6282557 L7.74131831,17.8623869 L8.75941664,16.1159669 C8.75811601,16.1138875 8.75681902,16.1118047 8.75552569,16.1097186 L8.53421032,15.7527427 C8.4297444,15.5842419 8.082501,15.3840371 7.88484814,15.3778332 L7.46504026,15.3646565 C7.28118107,15.3588856 7.10343906,15.3260198 6.93570887,15.2699866 Z M17.064267,15.2699452 C16.896472,15.3260151 16.7187222,15.3588886 16.5349597,15.3646565 L16.1151519,15.3778332 C15.9169929,15.384053 15.5699888,15.5846722 15.4657897,15.7527427 L15.2444743,16.1097186 C15.243181,16.1118047 15.241884,16.1138875 15.2405834,16.1159669 L16.2586817,17.8623869 L16.2444918,17.6282557 C16.1949589,16.8109712 17.1088006,16.2884443 17.7987042,16.7395702 L17.996344,16.8688063 L17.064267,15.2699452 Z M10.7948804,14.8035929 C11.489009,14.43137 12.5098545,14.4307605 13.2051196,14.8035929 L13.565028,14.996592 C13.5833973,15.0064425 13.6319185,14.9934956 13.642942,14.975715 L13.8581323,14.6286187 C14.2731538,13.9591998 15.1569272,13.4482493 15.9454606,13.4234991 L16.35365,13.410687 C16.3744835,13.4100331 16.4100307,13.3745602 16.410687,13.35365 L16.4234991,12.9454606 C16.4482089,12.1582161 16.9581039,11.2738333 17.6286187,10.8581323 L17.975715,10.642942 C17.9934304,10.6319589 18.0064787,10.5834649 17.996592,10.565028 L17.8035929,10.2051196 C17.43137,9.51099095 17.4307605,8.49014547 17.8035929,7.79488045 L17.996592,7.43497199 C18.0064425,7.41660268 17.9934956,7.36808148 17.975715,7.35705801 L17.6286187,7.14186769 C16.9591998,6.72684617 16.4482493,5.84307275 16.4234991,5.05453939 L16.410687,4.64634998 C16.4100331,4.62551647 16.3745602,4.58996931 16.35365,4.58931298 L15.9454606,4.57650088 C15.1582161,4.55179112 14.2738333,4.04189614 13.8581323,3.37138132 L13.642942,3.02428497 C13.6319589,3.00656958 13.5834649,2.99352129 13.565028,3.00340799 L13.2051196,3.19640708 C12.510991,3.56863005 11.4901455,3.56923945 10.7948804,3.19640708 L10.434972,3.00340799 C10.4166027,2.99355754 10.3680815,3.0065044 10.357058,3.02428497 L10.1418677,3.37138132 C9.72684617,4.04080017 8.84307275,4.55175067 8.05453939,4.57650088 L7.64634998,4.58931298 C7.62551647,4.5899669 7.58996931,4.62543981 7.58931298,4.64634998 L7.57650088,5.05453939 C7.55179112,5.84178388 7.04189614,6.7261667 6.37138132,7.14186769 L6.02428497,7.35705801 C6.00656958,7.36804107 5.99352129,7.4165351 6.00340799,7.43497199 L6.19640708,7.79488045 C6.56863005,8.48900905 6.56923945,9.50985453 6.19640708,10.2051196 L6.00340799,10.565028 C5.99355754,10.5833973 6.0065044,10.6319185 6.02428497,10.642942 L6.37138132,10.8581323 C7.04080017,11.2731538 7.55175067,12.1569272 7.57650088,12.9454606 L7.58931298,13.35365 C7.5899669,13.3744835 7.62543981,13.4100307 7.64634998,13.410687 L8.05453939,13.4234991 C8.84178388,13.4482089 9.7261667,13.9581039 10.1418677,14.6286187 L10.357058,14.975715 C10.3680411,14.9934304 10.4165351,15.0064787 10.434972,14.996592 L10.7948804,14.8035929 Z M12,13 C11.4477153,13 11,12.5522847 11,12 C11,11.4477153 11.4477153,11 12,11 C13.1045695,11 14,10.1045695 14,9 C14,8.44771525 14.4477153,8 15,8 C15.5522847,8 16,8.44771525 16,9 C16,11.209139 14.209139,13 12,13 Z M12,5 C12.5522847,5 13,5.44771525 13,6 C13,6.55228475 12.5522847,7 12,7 C10.8954305,7 10,7.8954305 10,9 C10,9.55228475 9.55228475,10 9,10 C8.44771525,10 8,9.55228475 8,9 C8,6.790861 9.790861,5 12,5 Z"></path></g></svg>