<svg width="14" height="16" viewBox="0 0 14 16" fill="#00BE5A" stroke-width="0" stroke="currentColor" stroke-linecap="round" xmlns="http://www.w3.org/2000/svg" xmlns:xlink="http://www.w3.org/1999/xlink"><g fill="none" fill-rule="evenodd" transform="translate(-1)"><rect width="16" height="16"></rect><path fill="#00BE5A" d="M14,8 L14,12 C14,12.7402824 13.5978014,13.3866262 13,13.7324356 L13,15 C13,15.5522847 12.5522847,16 12,16 C11.4477153,16 11,15.5522847 11,15 L11,14 L5,14 L5,15 C5,15.5522847 4.55228475,16 4,16 C3.44771525,16 3,15.5522847 3,15 L3,13.7324356 C2.40219863,13.3866262 2,12.7402824 2,12 L2,8 C1.44771525,8 1,7.55228475 1,7 L1,6 C1,5.44771525 1.44771525,5 2,5 L2,3 C2,1.34314575 3.34314575,3.04359188e-16 5,0 L11,0 C12.6568542,-3.04359188e-16 14,1.34314575 14,3 L14,5 C14.5522847,5 15,5.44771525 15,6 L15,7 C15,7.55228475 14.5522847,8 14,8 Z M11,10 C10.4477153,10 10,10.4477153 10,11 C10,11.5522847 10.4477153,12 11,12 L12,12 C12.5522847,12 13,11.5522847 13,11 C13,10.4477153 12.5522847,10 12,10 L11,10 Z M4,10 C3.44771525,10 3,10.4477153 3,11 C3,11.5522847 3.44771525,12 4,12 L5,12 C5.55228475,12 6,11.5522847 6,11 C6,10.4477153 5.55228475,10 5,10 L4,10 Z M5,2 C4.44771525,2 4,2.44771525 4,3 L4,8 C4,8.55228475 4.44771525,9 5,9 L11,9 C11.5522847,9 12,8.55228475 12,8 L12,3 C12,2.44771525 11.5522847,2 11,2 L5,2 Z"></path></g></svg>