<svg stroke-width="0" width="16" height="16" viewBox="0 0 16 16" fill="#235D9F" stroke="currentColor" stroke-linecap="round" xmlns="http://www.w3.org/2000/svg" xmlns:xlink="http://www.w3.org/1999/xlink"><path fill-rule="evenodd" d="M10,5 L13.9970707,5 C14.5509732,5 15,5.4556644 15,5.99539757 L15,15 L9,15 L1,15 L1,2.00684547 C1,1.45078007 1.4463114,1 1.99754465,1 L9.00245535,1 C9.55338405,1 10,1.44994876 10,2.00684547 L10,5 Z M4,12 L4,15 L7,15 L7,12 L4,12 Z M3,4 C3,4.55613518 3.44762906,5 3.99980749,5 L7.00019251,5 C7.55628335,5 8,4.55228475 8,4 C8,3.44386482 7.55237094,3 7.00019251,3 L3.99980749,3 C3.44371665,3 3,3.44771525 3,4 Z M3,8 C3,8.55613518 3.44762906,9 3.99980749,9 L7.00019251,9 C7.55628335,9 8,8.55228475 8,8 C8,7.44386482 7.55237094,7 7.00019251,7 L3.99980749,7 C3.44371665,7 3,7.44771525 3,8 Z M11,8 C11,8.55613518 11.4477153,9 12,9 C12.5561352,9 13,8.55228475 13,8 C13,7.44386482 12.5522847,7 12,7 C11.4438648,7 11,7.44771525 11,8 Z M11,11 C11,11.5561352 11.4477153,12 12,12 C12.5561352,12 13,11.5522847 13,11 C13,10.4438648 12.5522847,10 12,10 C11.4438648,10 11,10.4477153 11,11 Z"></path></svg>