<svg stroke-width="0" viewBox="0 0 24 24" class="_2tk-r" fill="none" height="24" stroke="currentColor" stroke-linecap="round" width="24" xmlns="http://www.w3.org/2000/svg" xmlns:xlink="http://www.w3.org/1999/xlink"><g fill="none" fill-rule="evenodd"><path fill="#0770CD" fill-rule="nonzero" d="M3.107 9.692a7.976 7.976 0 0 1 2.236-4.349A8 8 0 0 1 17.32 15.905l4.384 4.374a1.01 1.01 0 0 1 .006 1.423.997.997 0 0 1-1.416.006L15.9 17.324A7.965 7.965 0 0 1 11 19a7.977 7.977 0 0 1-5.657-2.343 1 1 0 1 1 1.414-1.414 6 6 0 1 0-1.53-5.884l.066-.066a1 1 0 1 1 1.414 1.414l-2 2a1 1 0 0 1-1.414 0l-2-2a1 1 0 0 1 1.414-1.414l.4.4z"></path><path fill="#1BA0E2" d="M12 11V8a1 1 0 0 0-2 0v4a.997.997 0 0 0 1 1h3a1 1 0 0 0 0-2h-2z"></path></g></svg>