<svg stroke-width="0" fill="#8F8F8F" height="24" stroke="currentColor" stroke-linecap="round" viewBox="0 0 24 24" width="24" xmlns="http://www.w3.org/2000/svg" xmlns:xlink="http://www.w3.org/1999/xlink"><path d="M12,22 C11.1424045,22 8.84780487,20.2930157 7.00957977,18.3402736 C4.52838018,15.7045012 3,12.8457995 3,10 C3,5.02943725 7.02943725,1 12,1 C16.9705627,1 21,5.02943725 21,10 C21,12.724911 19.4815749,15.5596483 17.0255149,18.2267241 C15.1588505,20.2537655 12.8869061,22 12,22 Z M11.9578218,19.8983847 C11.9727353,19.9070499 11.9872231,19.9153586 12.0012561,19.923301 C12.0179843,19.9136461 12.0353769,19.9034391 12.0533854,19.8926959 C12.2982156,19.7466389 12.6151234,19.5271401 12.9667448,19.2568811 C13.8019853,18.6149087 14.7186006,17.7794076 15.554299,16.871909 C17.7026474,14.5389823 19,12.1169638 19,10 C19,6.13400675 15.8659932,3 12,3 C8.13400675,3 5,6.13400675 5,10 C5,12.2366687 6.30052449,14.6691863 8.46584941,16.9694057 C9.29802456,17.8534234 10.2109711,18.6614735 11.0517991,19.286977 C11.399382,19.5455488 11.7141657,19.7568134 11.9578218,19.8983847 Z M8,10 C8,9.44771525 8.44771525,9 9,9 C9.55228475,9 10,9.44771525 10,10 C10,11.1045695 10.8954305,12 12,12 C13.1045695,12 14,11.1045695 14,10 C14,8.8954305 13.1045695,8 12,8 C11.4477153,8 11,7.55228475 11,7 C11,6.44771525 11.4477153,6 12,6 C14.209139,6 16,7.790861 16,10 C16,12.209139 14.209139,14 12,14 C9.790861,14 8,12.209139 8,10 Z"></path></svg>