<svg stroke-width="0" fill="#0770CD" height="24" stroke="currentColor" stroke-linecap="round" viewBox="0 0 24 24" width="24" xmlns="http://www.w3.org/2000/svg" xmlns:xlink="http://www.w3.org/1999/xlink"><path d="M14,9 L20.0029699,9 C21.1057446,9 22,9.89239597 22,10.9955775 L22,21 C22,21.5522847 21.5522847,22 21,22 L13.0000005,22 L10,22 C9.44771525,22 9,21.5522847 9,21 C9,21 9.00008843,19 8.9906311,19 C8.9906311,19 7,18.9999116 7,19.0093689 L7,21 C7,21.5522847 6.55228475,22 6,22 L3,22 C2.44771525,22 2,21.5522847 2,21 L2,3.99339768 C2,2.89389127 2.90191241,2 3.99539757,2 L12.0046024,2 C13.1061447,2 14,2.89217541 14,3.99339768 L14,9 Z M14,11 L14,20 L20,20 L20,11 L14,11 Z M11,20 L12,20 L12,4 C12,4 3.99941043,4.00035826 4,3.99339768 L4,20 L5,20 L5,19.0093689 C5,17.8979628 5.89270473,17 7.0093689,17 L8.9906311,17 C10.1020372,17 11,17.8927047 11,19.0093689 L11,20 Z M5,7 C5,6.44771525 5.45097518,6 5.99077797,6 L10.009222,6 C10.5564136,6 11,6.44386482 11,7 C11,7.55228475 10.5490248,8 10.009222,8 L5.99077797,8 C5.44358641,8 5,7.55613518 5,7 Z M5,11 C5,10.4477153 5.45097518,10 5.99077797,10 L10.009222,10 C10.5564136,10 11,10.4438648 11,11 C11,11.5522847 10.5490248,12 10.009222,12 L5.99077797,12 C5.44358641,12 5,11.5561352 5,11 Z M5,15 C5,14.4477153 5.45097518,14 5.99077797,14 L10.009222,14 C10.5564136,14 11,14.4438648 11,15 C11,15.5522847 10.5490248,16 10.009222,16 L5.99077797,16 C5.44358641,16 5,15.5561352 5,15 Z M15,13 C15,12.4477153 15.4438648,12 16,12 C16.5522847,12 17,12.4438648 17,13 C17,13.5522847 16.5561352,14 16,14 C15.4477153,14 15,13.5561352 15,13 Z M15,17 C15,16.4477153 15.4438648,16 16,16 C16.5522847,16 17,16.4438648 17,17 C17,17.5522847 16.5561352,18 16,18 C15.4477153,18 15,17.5561352 15,17 Z M18,13 C18,12.4477153 18.4438648,12 19,12 C19.5522847,12 20,12.4438648 20,13 C20,13.5522847 19.5561352,14 19,14 C18.4477153,14 18,13.5561352 18,13 Z M18,17 C18,16.4477153 18.4438648,16 19,16 C19.5522847,16 20,16.4438648 20,17 C20,17.5522847 19.5561352,18 19,18 C18.4477153,18 18,17.5561352 18,17 Z"></path></svg>