<svg stroke-width="0" width="16" height="16" viewBox="0 0 16 16" fill="#073E68" stroke="#073E68" stroke-linecap="round" xmlns="http://www.w3.org/2000/svg" xmlns:xlink="http://www.w3.org/1999/xlink"><path fill-rule="evenodd" d="M1,10.498576 C1,9.67093534 1.66579723,9 2.5,9 C3.32842712,9 4,9.66502976 4,10.498576 L4,13.501424 C4,14.3290647 3.33420277,15 2.5,15 C1.67157288,15 1,14.3349702 1,13.501424 L1,10.498576 Z M6,5.50643854 C6,4.67445551 6.66579723,4 7.5,4 C8.32842712,4 9,4.67154063 9,5.50643854 L9,13.4935615 C9,14.3255445 8.33420277,15 7.5,15 C6.67157288,15 6,14.3284594 6,13.4935615 L6,5.50643854 Z M11,1.49309635 C11,0.668482007 11.6657972,0 12.5,0 C13.3284271,0 14,0.663885847 14,1.49309635 L14,13.5069036 C14,14.331518 13.3342028,15 12.5,15 C11.6715729,15 11,14.3361142 11,13.5069036 L11,1.49309635 Z"></path></svg>