<svg stroke-width="0" width="16" height="16" viewBox="0 0 16 16" fill="#FCA000" stroke="currentColor" stroke-linecap="round" xmlns="http://www.w3.org/2000/svg" xmlns:xlink="http://www.w3.org/1999/xlink"><path fill-rule="evenodd" d="M14.115625,13.1258912 C14.1732728,13.229332 14.1739484,13.2305477 14.226059,13.3243125 C14.2631769,13.3907155 14.2899481,13.4372681 14.3121937,13.4738907 C14.2943365,13.4444927 14.2879053,13.43618 14.1300289,13.3452918 C14.3078143,13.4476415 14.4498209,13.6021924 14.5367912,13.787986 L14.9056843,14.5760473 C15.1398269,15.076243 14.9241483,15.6715417 14.4239527,15.9056843 C13.923757,16.1398269 13.3284583,15.9241483 13.0943157,15.4239527 L12.8064451,14.8089788 C12.738062,14.7269874 12.6750901,14.6311562 12.6028333,14.5122005 C12.5655328,14.4507931 12.5281753,14.385832 12.4802876,14.3001619 C12.4231436,14.197359 12.4231436,14.197359 12.3690678,14.1003175 C12.3482607,14.0632293 12.3293582,14.0300076 12.3119573,14 L3.68773969,14 C3.67035481,14.0299839 3.65147616,14.0631701 3.63071263,14.1001913 C3.57667547,14.1971964 3.57667547,14.1971964 3.5195805,14.2999661 C3.47169466,14.3856823 3.43440542,14.4505705 3.39716163,14.5119348 C3.32488323,14.6310235 3.26194009,14.726904 3.19358435,14.8089158 L2.90568434,15.4239527 C2.67154174,15.9241483 2.07624297,16.1398269 1.57604732,15.9056843 C1.07585167,15.6715417 0.86017306,15.076243 1.09431566,14.5760473 L1.46320877,13.787986 C1.55017911,13.6021924 1.69218574,13.4476415 1.8699711,13.3452918 C1.71178684,13.4363573 1.70542289,13.4445907 1.68742439,13.4742457 C1.70966115,13.4376076 1.73641437,13.3910535 1.77356851,13.3245471 C1.82573589,13.2306298 1.82636639,13.2294947 1.88418891,13.1257048 C1.33802911,12.5821377 1,11.8294387 1,10.9966488 L1,5.99818512 C1,2.68547895 3.68277588,0 6.99818512,0 L9.00181488,0 C12.314521,0 15,2.68277588 15,5.99818512 L15,10.9966488 C15,11.8288292 14.6621128,12.5819586 14.115625,13.1258912 Z M3,5.0093689 L3,6.9906311 C3,7.55664682 3.44565467,8 3.99539757,8 L12.0046024,8 C12.5443356,8 13,7.54809015 13,6.9906311 L13,5.0093689 C13,4.44335318 12.5543453,4 12.0046024,4 L3.99539757,4 C3.4556644,4 3,4.45190985 3,5.0093689 Z M4.5,12 C5.32842712,12 6,11.3284271 6,10.5 C6,9.67157288 5.32842712,9 4.5,9 C3.67157288,9 3,9.67157288 3,10.5 C3,11.3284271 3.67157288,12 4.5,12 Z M11.5,12 C12.3284271,12 13,11.3284271 13,10.5 C13,9.67157288 12.3284271,9 11.5,9 C10.6715729,9 10,9.67157288 10,10.5 C10,11.3284271 10.6715729,12 11.5,12 Z"></path></svg>