<svg stroke-width="0" width="16" height="20" viewBox="0 0 16 16" fill="#931682" stroke="currentColor" stroke-linecap="round" xmlns="http://www.w3.org/2000/svg" xmlns:xlink="http://www.w3.org/1999/xlink"><g fill="none" fill-rule="evenodd"><rect width="16" height="16"></rect><path fill="#931682" d="M2,16 L0,16 L0,7 L4.5,7 L5,6 L4,4 L6,4 L7,5 L9,5 L8,0 L9,0 L12,5 L15.0046024,5 C15.5543453,5 16,5.44386482 16,6 C16,6.55228475 15.5443356,7 15.0046024,7 L7,7 L6,8 L6,9 L7,9 C7.58171161,9 8.10541836,9.24913327 8.47087756,9.64561218 L9,7 L12,7 L9,12 L9,16 L4,16 L4,14 L2,14 L2,16 Z M1,12 L1,13 L5,13 L5,12 L1,12 Z M6,14 L6,15 L8,15 L8,14 L6,14 Z M6,12 L6,13 L8,13 L8,12 L6,12 Z M1,10 L1,11 L5,11 L5,10 L1,10 Z M2,8 L2,9 L4,9 L4,8 L2,8 Z"></path></g></svg>