<svg stroke-width="0" width="16" height="20" viewBox="0 0 16 16" fill="#073E68" stroke="currentColor" stroke-linecap="round" xmlns="http://www.w3.org/2000/svg" xmlns:xlink="http://www.w3.org/1999/xlink"><g fill="none" fill-rule="evenodd"><rect width="16" height="16"></rect><path fill="#073E68" fill-rule="nonzero" d="M14 2v11.5a.5.5 0 0 1-.5.5.5.5 0 0 0-.5.5.5.5 0 1 1-1 0 .5.5 0 1 0-1 0 .5.5 0 1 1-1 0 .5.5 0 1 0-1 0 .5.5 0 1 1-1 0 .5.5 0 1 0-1 0 .5.5 0 1 1-1 0 .5.5 0 1 0-1 0 .5.5 0 1 1-1 0 .5.5 0 1 0-1 0 .5.5 0 1 1-1 0V2a1 1 0 0 1 1-1h10a1 1 0 0 1 1 1zm-3 4a1 1 0 1 0 0-2 1 1 0 0 0 0 2zM5 4a1 1 0 1 0 0 2h3a1 1 0 1 0 0-2H5zm6 5a1 1 0 1 0 0-2 1 1 0 0 0 0 2zM5 7a1 1 0 1 0 0 2h3a1 1 0 1 0 0-2H5zm3 3a1 1 0 0 0 0 2h3a1 1 0 0 0 0-2H8z"></path></g></svg>