<svg stroke-width="0" width="48" height="48" viewBox="0 0 48 48" fill="none" stroke="currentColor" stroke-linecap="round" xmlns="http://www.w3.org/2000/svg" xmlns:xlink="http://www.w3.org/1999/xlink"><g fill="#fff" fill-rule="evenodd"><path fill-rule="nonzero" d="M35.3154551,10 C32.1506291,7.43687837 28.1909675,6 24,6 C14.0588745,6 6,14.0588745 6,24 C6,33.9411255 14.0588745,42 24,42 C33.9411255,42 42,33.9411255 42,24 C42,22.8087459 41.8845557,21.6334634 41.6573675,20.4850205 C41.4430125,19.4014497 42.1476511,18.3492729 43.231222,18.1349179 C44.3147928,17.9205629 45.3669695,18.6252015 45.5813245,19.7087723 C45.859019,21.112526 46,22.547785 46,24 C46,36.1502645 36.1502645,46 24,46 C11.8497355,46 2,36.1502645 2,24 C2,11.8497355 11.8497355,2 24,2 C29.1938639,2 34.1049749,3.81023209 38,7.02823864 L38,4 C38,2.8954305 38.8954305,2 40,2 C41.1045695,2 42,2.8954305 42,4 L42,12 C42,13.1045695 41.1045695,14 40,14 L32,14 C30.8954305,14 30,13.1045695 30,12 C30,10.8954305 30.8954305,10 32,10 L35.3154551,10 Z M22,9.99791312 C22,8.89449617 22.8877296,8 24,8 C25.1045695,8 26,8.89826062 26,9.99791312 L26,12.0020869 C26,13.1055038 25.1122704,14 24,14 C22.8954305,14 22,13.1017394 22,12.0020869 L22,9.99791312 Z M22,35.9979131 C22,34.8944962 22.8877296,34 24,34 C25.1045695,34 26,34.8982606 26,35.9979131 L26,38.0020869 C26,39.1055038 25.1122704,40 24,40 C22.8954305,40 22,39.1017394 22,38.0020869 L22,35.9979131 Z"></path><path d="M23.239599,31 L13.362814,31 L13.362814,28.9146919 L17.7351457,24.2511848 C18.3207288,23.6066318 18.7501499,23.0315981 19.023422,22.5260664 C19.2966941,22.0205346 19.4333281,21.5813605 19.4333281,21.2085308 C19.4333281,20.6714033 19.3097068,20.2464471 19.0624607,19.9336493 C18.8152145,19.6208515 18.4183252,19.464455 17.8717811,19.464455 C17.3577693,19.464455 16.9592534,19.6682444 16.6762216,20.0758294 C16.3931898,20.4834144 16.251676,21.0031564 16.251676,21.6350711 L13.0212256,21.6350711 L13.0017063,21.5781991 C12.9691739,20.3017314 13.4018482,19.2195937 14.2997422,18.3317536 C15.1976363,17.4439134 16.388304,17 17.8717811,17 C19.4268294,17 20.6272567,17.3712443 21.4730989,18.1137441 C22.3189411,18.8562438 22.7418558,19.8783505 22.7418558,21.1800948 C22.7418558,22.0521371 22.5076261,22.8246412 22.0391597,23.4976303 C21.5706932,24.1706195 20.711851,25.1642904 19.4626071,26.478673 L17.7351457,28.4881517 L17.754665,28.535545 L23.239599,28.535545 L23.239599,31 Z M33.5653287,25.6066351 L35,25.6066351 L35,28.0900474 L33.5653287,28.0900474 L33.5653287,31 L30.2665606,31 L30.2665606,28.0900474 L24.6157123,28.0900474 L24.4205189,26.1184834 L30.2665606,17.2274882 L30.2665606,17.1990521 L33.5653287,17.1990521 L33.5653287,25.6066351 Z M27.2508229,25.6066351 L30.2665606,25.6066351 L30.2665606,21.3127962 L30.2080026,21.3033175 L29.8468948,22.014218 L27.2508229,25.6066351 Z"></path></g></svg>